<svg xmlns="http://www.w3.org/2000/svg" xmlns:xlink="http://www.w3.org/1999/xlink" width="238" zoomAndPan="magnify" viewBox="0 0 178.5 249.749992" height="333" preserveAspectRatio="xMidYMid meet" version="1.0"><defs><g/><clipPath id="818db3cc8e"><path d="M 0 0.222656 L 178 0.222656 L 178 249.277344 L 0 249.277344 Z M 0 0.222656 " clip-rule="nonzero"/></clipPath><clipPath id="1e9c43569d"><path d="M 0 0.222656 L 178 0.222656 L 178 249 L 0 249 Z M 0 0.222656 " clip-rule="nonzero"/></clipPath><clipPath id="c6e966867d"><path d="M 18.6875 0.222656 L 159.3125 0.222656 C 169.632812 0.222656 178 8.589844 178 18.914062 L 178 230.171875 C 178 240.492188 169.632812 248.859375 159.3125 248.859375 L 18.6875 248.859375 C 8.367188 248.859375 0 240.492188 0 230.171875 L 0 18.914062 C 0 8.589844 8.367188 0.222656 18.6875 0.222656 Z M 18.6875 0.222656 " clip-rule="nonzero"/></clipPath><clipPath id="1586e62786"><path d="M 0 0.222656 L 178 0.222656 L 178 248.859375 L 0 248.859375 Z M 0 0.222656 " clip-rule="nonzero"/></clipPath><clipPath id="7237a2544e"><path d="M 18.6875 0.222656 L 159.3125 0.222656 C 169.632812 0.222656 178 8.589844 178 18.914062 L 178 230.171875 C 178 240.492188 169.632812 248.859375 159.3125 248.859375 L 18.6875 248.859375 C 8.367188 248.859375 0 240.492188 0 230.171875 L 0 18.914062 C 0 8.589844 8.367188 0.222656 18.6875 0.222656 Z M 18.6875 0.222656 " clip-rule="nonzero"/></clipPath><linearGradient x1="0" gradientTransform="matrix(0.695318, 0, 0, 0.695318, 0, 0.221071)" y1="178.79401" x2="256" gradientUnits="userSpaceOnUse" y2="178.79401" id="7e9c73c04e"><stop stop-opacity="1" stop-color="rgb(54.899597%, 32.159424%, 100%)" offset="0"/><stop stop-opacity="1" stop-color="rgb(54.824829%, 32.377625%, 99.960327%)" offset="0.00390625"/><stop stop-opacity="1" stop-color="rgb(54.751587%, 32.597351%, 99.92218%)" offset="0.0078125"/><stop stop-opacity="1" stop-color="rgb(54.678345%, 32.815552%, 99.884033%)" offset="0.0117188"/><stop stop-opacity="1" stop-color="rgb(54.605103%, 33.035278%, 99.845886%)" offset="0.015625"/><stop stop-opacity="1" stop-color="rgb(54.53186%, 33.253479%, 99.807739%)" offset="0.0195312"/><stop stop-opacity="1" stop-color="rgb(54.458618%, 33.473206%, 99.769592%)" offset="0.0234375"/><stop stop-opacity="1" stop-color="rgb(54.38385%, 33.691406%, 99.731445%)" offset="0.0273438"/><stop stop-opacity="1" stop-color="rgb(54.310608%, 33.911133%, 99.693298%)" offset="0.03125"/><stop stop-opacity="1" stop-color="rgb(54.237366%, 34.130859%, 99.655151%)" offset="0.0351562"/><stop stop-opacity="1" stop-color="rgb(54.164124%, 34.350586%, 99.617004%)" offset="0.0390625"/><stop stop-opacity="1" stop-color="rgb(54.090881%, 34.568787%, 99.577332%)" offset="0.0429688"/><stop stop-opacity="1" stop-color="rgb(54.017639%, 34.788513%, 99.539185%)" offset="0.046875"/><stop stop-opacity="1" stop-color="rgb(53.942871%, 35.006714%, 99.501038%)" offset="0.0507812"/><stop stop-opacity="1" stop-color="rgb(53.869629%, 35.22644%, 99.462891%)" offset="0.0546875"/><stop stop-opacity="1" stop-color="rgb(53.796387%, 35.444641%, 99.424744%)" offset="0.0585938"/><stop stop-opacity="1" stop-color="rgb(53.723145%, 35.664368%, 99.386597%)" offset="0.0625"/><stop stop-opacity="1" stop-color="rgb(53.649902%, 35.882568%, 99.34845%)" offset="0.0664062"/><stop stop-opacity="1" stop-color="rgb(53.57666%, 36.102295%, 99.310303%)" offset="0.0703125"/><stop stop-opacity="1" stop-color="rgb(53.501892%, 36.320496%, 99.272156%)" offset="0.0742188"/><stop stop-opacity="1" stop-color="rgb(53.42865%, 36.540222%, 99.234009%)" offset="0.078125"/><stop stop-opacity="1" stop-color="rgb(53.355408%, 36.758423%, 99.195862%)" offset="0.0820312"/><stop stop-opacity="1" stop-color="rgb(53.282166%, 36.978149%, 99.157715%)" offset="0.0859375"/><stop stop-opacity="1" stop-color="rgb(53.207397%, 37.19635%, 99.118042%)" offset="0.0898438"/><stop stop-opacity="1" stop-color="rgb(53.134155%, 37.416077%, 99.079895%)" offset="0.09375"/><stop stop-opacity="1" stop-color="rgb(53.060913%, 37.635803%, 99.041748%)" offset="0.0976562"/><stop stop-opacity="1" stop-color="rgb(52.987671%, 37.85553%, 99.003601%)" offset="0.101562"/><stop stop-opacity="1" stop-color="rgb(52.914429%, 38.07373%, 98.965454%)" offset="0.105469"/><stop stop-opacity="1" stop-color="rgb(52.841187%, 38.293457%, 98.927307%)" offset="0.109375"/><stop stop-opacity="1" stop-color="rgb(52.766418%, 38.511658%, 98.88916%)" offset="0.113281"/><stop stop-opacity="1" stop-color="rgb(52.693176%, 38.731384%, 98.851013%)" offset="0.117188"/><stop stop-opacity="1" stop-color="rgb(52.619934%, 38.949585%, 98.812866%)" offset="0.121094"/><stop stop-opacity="1" stop-color="rgb(52.546692%, 39.169312%, 98.774719%)" offset="0.125"/><stop stop-opacity="1" stop-color="rgb(52.47345%, 39.387512%, 98.736572%)" offset="0.128906"/><stop stop-opacity="1" stop-color="rgb(52.400208%, 39.607239%, 98.698425%)" offset="0.132812"/><stop stop-opacity="1" stop-color="rgb(52.325439%, 39.825439%, 98.658752%)" offset="0.136719"/><stop stop-opacity="1" stop-color="rgb(52.252197%, 40.045166%, 98.620605%)" offset="0.140625"/><stop stop-opacity="1" stop-color="rgb(52.178955%, 40.263367%, 98.582458%)" offset="0.144531"/><stop stop-opacity="1" stop-color="rgb(52.105713%, 40.483093%, 98.544312%)" offset="0.148438"/><stop stop-opacity="1" stop-color="rgb(52.032471%, 40.701294%, 98.506165%)" offset="0.152344"/><stop stop-opacity="1" stop-color="rgb(51.959229%, 40.921021%, 98.468018%)" offset="0.15625"/><stop stop-opacity="1" stop-color="rgb(51.88446%, 41.140747%, 98.429871%)" offset="0.160156"/><stop stop-opacity="1" stop-color="rgb(51.811218%, 41.360474%, 98.391724%)" offset="0.164062"/><stop stop-opacity="1" stop-color="rgb(51.737976%, 41.578674%, 98.353577%)" offset="0.167969"/><stop stop-opacity="1" stop-color="rgb(51.664734%, 41.798401%, 98.31543%)" offset="0.171875"/><stop stop-opacity="1" stop-color="rgb(51.591492%, 42.016602%, 98.275757%)" offset="0.175781"/><stop stop-opacity="1" stop-color="rgb(51.51825%, 42.236328%, 98.23761%)" offset="0.179688"/><stop stop-opacity="1" stop-color="rgb(51.443481%, 42.454529%, 98.199463%)" offset="0.183594"/><stop stop-opacity="1" stop-color="rgb(51.370239%, 42.674255%, 98.161316%)" offset="0.1875"/><stop stop-opacity="1" stop-color="rgb(51.296997%, 42.892456%, 98.123169%)" offset="0.191406"/><stop stop-opacity="1" stop-color="rgb(51.223755%, 43.112183%, 98.085022%)" offset="0.195312"/><stop stop-opacity="1" stop-color="rgb(51.148987%, 43.330383%, 98.046875%)" offset="0.199219"/><stop stop-opacity="1" stop-color="rgb(51.075745%, 43.55011%, 98.008728%)" offset="0.203125"/><stop stop-opacity="1" stop-color="rgb(51.002502%, 43.768311%, 97.970581%)" offset="0.207031"/><stop stop-opacity="1" stop-color="rgb(50.92926%, 43.988037%, 97.932434%)" offset="0.210938"/><stop stop-opacity="1" stop-color="rgb(50.856018%, 44.207764%, 97.894287%)" offset="0.214844"/><stop stop-opacity="1" stop-color="rgb(50.782776%, 44.42749%, 97.85614%)" offset="0.21875"/><stop stop-opacity="1" stop-color="rgb(50.708008%, 44.645691%, 97.816467%)" offset="0.222656"/><stop stop-opacity="1" stop-color="rgb(50.634766%, 44.865417%, 97.77832%)" offset="0.226562"/><stop stop-opacity="1" stop-color="rgb(50.561523%, 45.083618%, 97.740173%)" offset="0.230469"/><stop stop-opacity="1" stop-color="rgb(50.488281%, 45.303345%, 97.702026%)" offset="0.234375"/><stop stop-opacity="1" stop-color="rgb(50.415039%, 45.521545%, 97.663879%)" offset="0.238281"/><stop stop-opacity="1" stop-color="rgb(50.341797%, 45.741272%, 97.625732%)" offset="0.242188"/><stop stop-opacity="1" stop-color="rgb(50.267029%, 45.959473%, 97.587585%)" offset="0.246094"/><stop stop-opacity="1" stop-color="rgb(50.193787%, 46.179199%, 97.549438%)" offset="0.25"/><stop stop-opacity="1" stop-color="rgb(50.120544%, 46.3974%, 97.511292%)" offset="0.253906"/><stop stop-opacity="1" stop-color="rgb(50.047302%, 46.617126%, 97.473145%)" offset="0.257812"/><stop stop-opacity="1" stop-color="rgb(49.97406%, 46.835327%, 97.434998%)" offset="0.261719"/><stop stop-opacity="1" stop-color="rgb(49.900818%, 47.055054%, 97.396851%)" offset="0.265625"/><stop stop-opacity="1" stop-color="rgb(49.82605%, 47.273254%, 97.357178%)" offset="0.269531"/><stop stop-opacity="1" stop-color="rgb(49.752808%, 47.492981%, 97.319031%)" offset="0.273438"/><stop stop-opacity="1" stop-color="rgb(49.679565%, 47.712708%, 97.280884%)" offset="0.277344"/><stop stop-opacity="1" stop-color="rgb(49.606323%, 47.932434%, 97.242737%)" offset="0.28125"/><stop stop-opacity="1" stop-color="rgb(49.533081%, 48.150635%, 97.20459%)" offset="0.285156"/><stop stop-opacity="1" stop-color="rgb(49.459839%, 48.370361%, 97.166443%)" offset="0.289062"/><stop stop-opacity="1" stop-color="rgb(49.385071%, 48.588562%, 97.128296%)" offset="0.292969"/><stop stop-opacity="1" stop-color="rgb(49.311829%, 48.808289%, 97.090149%)" offset="0.296875"/><stop stop-opacity="1" stop-color="rgb(49.238586%, 49.026489%, 97.052002%)" offset="0.300781"/><stop stop-opacity="1" stop-color="rgb(49.165344%, 49.246216%, 97.013855%)" offset="0.304688"/><stop stop-opacity="1" stop-color="rgb(49.090576%, 49.464417%, 96.974182%)" offset="0.308594"/><stop stop-opacity="1" stop-color="rgb(49.017334%, 49.684143%, 96.936035%)" offset="0.3125"/><stop stop-opacity="1" stop-color="rgb(48.944092%, 49.902344%, 96.897888%)" offset="0.316406"/><stop stop-opacity="1" stop-color="rgb(48.87085%, 50.12207%, 96.859741%)" offset="0.320312"/><stop stop-opacity="1" stop-color="rgb(48.797607%, 50.340271%, 96.821594%)" offset="0.324219"/><stop stop-opacity="1" stop-color="rgb(48.724365%, 50.559998%, 96.783447%)" offset="0.328125"/><stop stop-opacity="1" stop-color="rgb(48.649597%, 50.778198%, 96.7453%)" offset="0.332031"/><stop stop-opacity="1" stop-color="rgb(48.576355%, 50.997925%, 96.707153%)" offset="0.335938"/><stop stop-opacity="1" stop-color="rgb(48.503113%, 51.217651%, 96.669006%)" offset="0.339844"/><stop stop-opacity="1" stop-color="rgb(48.429871%, 51.437378%, 96.630859%)" offset="0.34375"/><stop stop-opacity="1" stop-color="rgb(48.356628%, 51.655579%, 96.592712%)" offset="0.347656"/><stop stop-opacity="1" stop-color="rgb(48.283386%, 51.875305%, 96.554565%)" offset="0.351562"/><stop stop-opacity="1" stop-color="rgb(48.208618%, 52.093506%, 96.514893%)" offset="0.355469"/><stop stop-opacity="1" stop-color="rgb(48.135376%, 52.313232%, 96.476746%)" offset="0.359375"/><stop stop-opacity="1" stop-color="rgb(48.062134%, 52.531433%, 96.438599%)" offset="0.363281"/><stop stop-opacity="1" stop-color="rgb(47.988892%, 52.75116%, 96.400452%)" offset="0.367188"/><stop stop-opacity="1" stop-color="rgb(47.915649%, 52.96936%, 96.362305%)" offset="0.371094"/><stop stop-opacity="1" stop-color="rgb(47.842407%, 53.189087%, 96.324158%)" offset="0.375"/><stop stop-opacity="1" stop-color="rgb(47.767639%, 53.407288%, 96.286011%)" offset="0.378906"/><stop stop-opacity="1" stop-color="rgb(47.694397%, 53.627014%, 96.247864%)" offset="0.382812"/><stop stop-opacity="1" stop-color="rgb(47.621155%, 53.845215%, 96.209717%)" offset="0.386719"/><stop stop-opacity="1" stop-color="rgb(47.547913%, 54.064941%, 96.17157%)" offset="0.390625"/><stop stop-opacity="1" stop-color="rgb(47.473145%, 54.283142%, 96.133423%)" offset="0.394531"/><stop stop-opacity="1" stop-color="rgb(47.399902%, 54.502869%, 96.095276%)" offset="0.398438"/><stop stop-opacity="1" stop-color="rgb(47.32666%, 54.722595%, 96.055603%)" offset="0.402344"/><stop stop-opacity="1" stop-color="rgb(47.253418%, 54.942322%, 96.017456%)" offset="0.40625"/><stop stop-opacity="1" stop-color="rgb(47.180176%, 55.160522%, 95.979309%)" offset="0.410156"/><stop stop-opacity="1" stop-color="rgb(47.106934%, 55.380249%, 95.941162%)" offset="0.414062"/><stop stop-opacity="1" stop-color="rgb(47.032166%, 55.59845%, 95.903015%)" offset="0.417969"/><stop stop-opacity="1" stop-color="rgb(46.958923%, 55.818176%, 95.864868%)" offset="0.421875"/><stop stop-opacity="1" stop-color="rgb(46.885681%, 56.036377%, 95.826721%)" offset="0.425781"/><stop stop-opacity="1" stop-color="rgb(46.812439%, 56.256104%, 95.788574%)" offset="0.429688"/><stop stop-opacity="1" stop-color="rgb(46.739197%, 56.474304%, 95.750427%)" offset="0.433594"/><stop stop-opacity="1" stop-color="rgb(46.665955%, 56.694031%, 95.71228%)" offset="0.4375"/><stop stop-opacity="1" stop-color="rgb(46.591187%, 56.912231%, 95.672607%)" offset="0.441406"/><stop stop-opacity="1" stop-color="rgb(46.517944%, 57.131958%, 95.63446%)" offset="0.445312"/><stop stop-opacity="1" stop-color="rgb(46.444702%, 57.350159%, 95.596313%)" offset="0.449219"/><stop stop-opacity="1" stop-color="rgb(46.37146%, 57.569885%, 95.558167%)" offset="0.453125"/><stop stop-opacity="1" stop-color="rgb(46.298218%, 57.789612%, 95.52002%)" offset="0.457031"/><stop stop-opacity="1" stop-color="rgb(46.224976%, 58.009338%, 95.481873%)" offset="0.460938"/><stop stop-opacity="1" stop-color="rgb(46.150208%, 58.227539%, 95.443726%)" offset="0.464844"/><stop stop-opacity="1" stop-color="rgb(46.076965%, 58.447266%, 95.405579%)" offset="0.46875"/><stop stop-opacity="1" stop-color="rgb(46.003723%, 58.665466%, 95.367432%)" offset="0.472656"/><stop stop-opacity="1" stop-color="rgb(45.930481%, 58.885193%, 95.329285%)" offset="0.476562"/><stop stop-opacity="1" stop-color="rgb(45.857239%, 59.103394%, 95.291138%)" offset="0.480469"/><stop stop-opacity="1" stop-color="rgb(45.783997%, 59.32312%, 95.252991%)" offset="0.484375"/><stop stop-opacity="1" stop-color="rgb(45.709229%, 59.541321%, 95.213318%)" offset="0.488281"/><stop stop-opacity="1" stop-color="rgb(45.635986%, 59.761047%, 95.175171%)" offset="0.492188"/><stop stop-opacity="1" stop-color="rgb(45.562744%, 59.979248%, 95.137024%)" offset="0.496094"/><stop stop-opacity="1" stop-color="rgb(45.489502%, 60.198975%, 95.098877%)" offset="0.5"/><stop stop-opacity="1" stop-color="rgb(45.414734%, 60.417175%, 95.06073%)" offset="0.503906"/><stop stop-opacity="1" stop-color="rgb(45.341492%, 60.636902%, 95.022583%)" offset="0.507812"/><stop stop-opacity="1" stop-color="rgb(45.26825%, 60.855103%, 94.984436%)" offset="0.511719"/><stop stop-opacity="1" stop-color="rgb(45.195007%, 61.074829%, 94.946289%)" offset="0.515625"/><stop stop-opacity="1" stop-color="rgb(45.121765%, 61.294556%, 94.908142%)" offset="0.519531"/><stop stop-opacity="1" stop-color="rgb(45.048523%, 61.514282%, 94.869995%)" offset="0.523438"/><stop stop-opacity="1" stop-color="rgb(44.973755%, 61.732483%, 94.831848%)" offset="0.527344"/><stop stop-opacity="1" stop-color="rgb(44.900513%, 61.952209%, 94.793701%)" offset="0.53125"/><stop stop-opacity="1" stop-color="rgb(44.827271%, 62.17041%, 94.754028%)" offset="0.535156"/><stop stop-opacity="1" stop-color="rgb(44.754028%, 62.390137%, 94.715881%)" offset="0.539062"/><stop stop-opacity="1" stop-color="rgb(44.680786%, 62.608337%, 94.677734%)" offset="0.542969"/><stop stop-opacity="1" stop-color="rgb(44.607544%, 62.828064%, 94.639587%)" offset="0.546875"/><stop stop-opacity="1" stop-color="rgb(44.532776%, 63.046265%, 94.60144%)" offset="0.550781"/><stop stop-opacity="1" stop-color="rgb(44.459534%, 63.265991%, 94.563293%)" offset="0.554688"/><stop stop-opacity="1" stop-color="rgb(44.386292%, 63.484192%, 94.525146%)" offset="0.558594"/><stop stop-opacity="1" stop-color="rgb(44.313049%, 63.703918%, 94.487%)" offset="0.5625"/><stop stop-opacity="1" stop-color="rgb(44.239807%, 63.922119%, 94.448853%)" offset="0.566406"/><stop stop-opacity="1" stop-color="rgb(44.166565%, 64.141846%, 94.410706%)" offset="0.570312"/><stop stop-opacity="1" stop-color="rgb(44.091797%, 64.360046%, 94.371033%)" offset="0.574219"/><stop stop-opacity="1" stop-color="rgb(44.018555%, 64.579773%, 94.332886%)" offset="0.578125"/><stop stop-opacity="1" stop-color="rgb(43.945312%, 64.7995%, 94.294739%)" offset="0.582031"/><stop stop-opacity="1" stop-color="rgb(43.87207%, 65.019226%, 94.256592%)" offset="0.585938"/><stop stop-opacity="1" stop-color="rgb(43.798828%, 65.237427%, 94.218445%)" offset="0.589844"/><stop stop-opacity="1" stop-color="rgb(43.725586%, 65.457153%, 94.180298%)" offset="0.59375"/><stop stop-opacity="1" stop-color="rgb(43.650818%, 65.675354%, 94.142151%)" offset="0.597656"/><stop stop-opacity="1" stop-color="rgb(43.577576%, 65.895081%, 94.104004%)" offset="0.601562"/><stop stop-opacity="1" stop-color="rgb(43.504333%, 66.113281%, 94.065857%)" offset="0.605469"/><stop stop-opacity="1" stop-color="rgb(43.431091%, 66.333008%, 94.02771%)" offset="0.609375"/><stop stop-opacity="1" stop-color="rgb(43.356323%, 66.551208%, 93.989563%)" offset="0.613281"/><stop stop-opacity="1" stop-color="rgb(43.283081%, 66.770935%, 93.951416%)" offset="0.617188"/><stop stop-opacity="1" stop-color="rgb(43.209839%, 66.989136%, 93.911743%)" offset="0.621094"/><stop stop-opacity="1" stop-color="rgb(43.136597%, 67.208862%, 93.873596%)" offset="0.625"/><stop stop-opacity="1" stop-color="rgb(43.063354%, 67.427063%, 93.835449%)" offset="0.628906"/><stop stop-opacity="1" stop-color="rgb(42.990112%, 67.64679%, 93.797302%)" offset="0.632812"/><stop stop-opacity="1" stop-color="rgb(42.915344%, 67.866516%, 93.759155%)" offset="0.636719"/><stop stop-opacity="1" stop-color="rgb(42.842102%, 68.086243%, 93.721008%)" offset="0.640625"/><stop stop-opacity="1" stop-color="rgb(42.76886%, 68.304443%, 93.682861%)" offset="0.644531"/><stop stop-opacity="1" stop-color="rgb(42.695618%, 68.52417%, 93.644714%)" offset="0.648438"/><stop stop-opacity="1" stop-color="rgb(42.622375%, 68.742371%, 93.606567%)" offset="0.652344"/><stop stop-opacity="1" stop-color="rgb(42.549133%, 68.962097%, 93.56842%)" offset="0.65625"/><stop stop-opacity="1" stop-color="rgb(42.474365%, 69.180298%, 93.530273%)" offset="0.660156"/><stop stop-opacity="1" stop-color="rgb(42.401123%, 69.400024%, 93.492126%)" offset="0.664062"/><stop stop-opacity="1" stop-color="rgb(42.327881%, 69.618225%, 93.452454%)" offset="0.667969"/><stop stop-opacity="1" stop-color="rgb(42.254639%, 69.837952%, 93.414307%)" offset="0.671875"/><stop stop-opacity="1" stop-color="rgb(42.181396%, 70.056152%, 93.37616%)" offset="0.675781"/><stop stop-opacity="1" stop-color="rgb(42.108154%, 70.275879%, 93.338013%)" offset="0.679688"/><stop stop-opacity="1" stop-color="rgb(42.033386%, 70.49408%, 93.299866%)" offset="0.683594"/><stop stop-opacity="1" stop-color="rgb(41.960144%, 70.713806%, 93.261719%)" offset="0.6875"/><stop stop-opacity="1" stop-color="rgb(41.886902%, 70.932007%, 93.223572%)" offset="0.691406"/><stop stop-opacity="1" stop-color="rgb(41.81366%, 71.151733%, 93.185425%)" offset="0.695312"/><stop stop-opacity="1" stop-color="rgb(41.740417%, 71.37146%, 93.147278%)" offset="0.699219"/><stop stop-opacity="1" stop-color="rgb(41.667175%, 71.591187%, 93.109131%)" offset="0.703125"/><stop stop-opacity="1" stop-color="rgb(41.592407%, 71.809387%, 93.069458%)" offset="0.707031"/><stop stop-opacity="1" stop-color="rgb(41.519165%, 72.029114%, 93.031311%)" offset="0.710938"/><stop stop-opacity="1" stop-color="rgb(41.445923%, 72.247314%, 92.993164%)" offset="0.714844"/><stop stop-opacity="1" stop-color="rgb(41.372681%, 72.467041%, 92.955017%)" offset="0.71875"/><stop stop-opacity="1" stop-color="rgb(41.297913%, 72.685242%, 92.91687%)" offset="0.722656"/><stop stop-opacity="1" stop-color="rgb(41.22467%, 72.904968%, 92.878723%)" offset="0.726562"/><stop stop-opacity="1" stop-color="rgb(41.151428%, 73.123169%, 92.840576%)" offset="0.730469"/><stop stop-opacity="1" stop-color="rgb(41.078186%, 73.342896%, 92.802429%)" offset="0.734375"/><stop stop-opacity="1" stop-color="rgb(41.004944%, 73.561096%, 92.764282%)" offset="0.738281"/><stop stop-opacity="1" stop-color="rgb(40.931702%, 73.780823%, 92.726135%)" offset="0.742188"/><stop stop-opacity="1" stop-color="rgb(40.856934%, 73.999023%, 92.687988%)" offset="0.746094"/><stop stop-opacity="1" stop-color="rgb(40.783691%, 74.21875%, 92.649841%)" offset="0.75"/><stop stop-opacity="1" stop-color="rgb(40.710449%, 74.436951%, 92.610168%)" offset="0.753906"/><stop stop-opacity="1" stop-color="rgb(40.637207%, 74.656677%, 92.572021%)" offset="0.757812"/><stop stop-opacity="1" stop-color="rgb(40.563965%, 74.876404%, 92.533875%)" offset="0.761719"/><stop stop-opacity="1" stop-color="rgb(40.490723%, 75.09613%, 92.495728%)" offset="0.765625"/><stop stop-opacity="1" stop-color="rgb(40.415955%, 75.314331%, 92.457581%)" offset="0.769531"/><stop stop-opacity="1" stop-color="rgb(40.342712%, 75.534058%, 92.419434%)" offset="0.773438"/><stop stop-opacity="1" stop-color="rgb(40.26947%, 75.752258%, 92.381287%)" offset="0.777344"/><stop stop-opacity="1" stop-color="rgb(40.196228%, 75.971985%, 92.34314%)" offset="0.78125"/><stop stop-opacity="1" stop-color="rgb(40.122986%, 76.190186%, 92.304993%)" offset="0.785156"/><stop stop-opacity="1" stop-color="rgb(40.049744%, 76.409912%, 92.266846%)" offset="0.789062"/><stop stop-opacity="1" stop-color="rgb(39.974976%, 76.628113%, 92.228699%)" offset="0.792969"/><stop stop-opacity="1" stop-color="rgb(39.901733%, 76.847839%, 92.190552%)" offset="0.796875"/><stop stop-opacity="1" stop-color="rgb(39.828491%, 77.06604%, 92.150879%)" offset="0.800781"/><stop stop-opacity="1" stop-color="rgb(39.755249%, 77.285767%, 92.112732%)" offset="0.804688"/><stop stop-opacity="1" stop-color="rgb(39.680481%, 77.503967%, 92.074585%)" offset="0.808594"/><stop stop-opacity="1" stop-color="rgb(39.607239%, 77.723694%, 92.036438%)" offset="0.8125"/><stop stop-opacity="1" stop-color="rgb(39.533997%, 77.941895%, 91.998291%)" offset="0.816406"/><stop stop-opacity="1" stop-color="rgb(39.460754%, 78.161621%, 91.960144%)" offset="0.820312"/><stop stop-opacity="1" stop-color="rgb(39.387512%, 78.381348%, 91.921997%)" offset="0.824219"/><stop stop-opacity="1" stop-color="rgb(39.31427%, 78.601074%, 91.88385%)" offset="0.828125"/><stop stop-opacity="1" stop-color="rgb(39.239502%, 78.819275%, 91.845703%)" offset="0.832031"/><stop stop-opacity="1" stop-color="rgb(39.16626%, 79.039001%, 91.807556%)" offset="0.835938"/><stop stop-opacity="1" stop-color="rgb(39.093018%, 79.257202%, 91.767883%)" offset="0.839844"/><stop stop-opacity="1" stop-color="rgb(39.019775%, 79.476929%, 91.729736%)" offset="0.84375"/><stop stop-opacity="1" stop-color="rgb(38.946533%, 79.695129%, 91.691589%)" offset="0.847656"/><stop stop-opacity="1" stop-color="rgb(38.873291%, 79.914856%, 91.653442%)" offset="0.851562"/><stop stop-opacity="1" stop-color="rgb(38.798523%, 80.133057%, 91.615295%)" offset="0.855469"/><stop stop-opacity="1" stop-color="rgb(38.725281%, 80.352783%, 91.577148%)" offset="0.859375"/><stop stop-opacity="1" stop-color="rgb(38.652039%, 80.570984%, 91.539001%)" offset="0.863281"/><stop stop-opacity="1" stop-color="rgb(38.578796%, 80.79071%, 91.500854%)" offset="0.867188"/><stop stop-opacity="1" stop-color="rgb(38.505554%, 81.008911%, 91.462708%)" offset="0.871094"/><stop stop-opacity="1" stop-color="rgb(38.432312%, 81.228638%, 91.424561%)" offset="0.875"/><stop stop-opacity="1" stop-color="rgb(38.357544%, 81.448364%, 91.386414%)" offset="0.878906"/><stop stop-opacity="1" stop-color="rgb(38.284302%, 81.668091%, 91.348267%)" offset="0.882812"/><stop stop-opacity="1" stop-color="rgb(38.21106%, 81.886292%, 91.308594%)" offset="0.886719"/><stop stop-opacity="1" stop-color="rgb(38.137817%, 82.106018%, 91.270447%)" offset="0.890625"/><stop stop-opacity="1" stop-color="rgb(38.064575%, 82.324219%, 91.2323%)" offset="0.894531"/><stop stop-opacity="1" stop-color="rgb(37.991333%, 82.543945%, 91.194153%)" offset="0.898438"/><stop stop-opacity="1" stop-color="rgb(37.916565%, 82.762146%, 91.156006%)" offset="0.902344"/><stop stop-opacity="1" stop-color="rgb(37.843323%, 82.981873%, 91.117859%)" offset="0.90625"/><stop stop-opacity="1" stop-color="rgb(37.770081%, 83.200073%, 91.079712%)" offset="0.910156"/><stop stop-opacity="1" stop-color="rgb(37.696838%, 83.4198%, 91.041565%)" offset="0.914062"/><stop stop-opacity="1" stop-color="rgb(37.62207%, 83.638%, 91.003418%)" offset="0.917969"/><stop stop-opacity="1" stop-color="rgb(37.548828%, 83.857727%, 90.965271%)" offset="0.921875"/><stop stop-opacity="1" stop-color="rgb(37.475586%, 84.075928%, 90.927124%)" offset="0.925781"/><stop stop-opacity="1" stop-color="rgb(37.402344%, 84.295654%, 90.888977%)" offset="0.929688"/><stop stop-opacity="1" stop-color="rgb(37.329102%, 84.513855%, 90.849304%)" offset="0.933594"/><stop stop-opacity="1" stop-color="rgb(37.255859%, 84.733582%, 90.811157%)" offset="0.9375"/><stop stop-opacity="1" stop-color="rgb(37.181091%, 84.953308%, 90.77301%)" offset="0.941406"/><stop stop-opacity="1" stop-color="rgb(37.107849%, 85.173035%, 90.734863%)" offset="0.945312"/><stop stop-opacity="1" stop-color="rgb(37.034607%, 85.391235%, 90.696716%)" offset="0.949219"/><stop stop-opacity="1" stop-color="rgb(36.961365%, 85.610962%, 90.658569%)" offset="0.953125"/><stop stop-opacity="1" stop-color="rgb(36.888123%, 85.829163%, 90.620422%)" offset="0.957031"/><stop stop-opacity="1" stop-color="rgb(36.81488%, 86.048889%, 90.582275%)" offset="0.960938"/><stop stop-opacity="1" stop-color="rgb(36.740112%, 86.26709%, 90.544128%)" offset="0.964844"/><stop stop-opacity="1" stop-color="rgb(36.66687%, 86.486816%, 90.505981%)" offset="0.96875"/><stop stop-opacity="1" stop-color="rgb(36.593628%, 86.705017%, 90.467834%)" offset="0.972656"/><stop stop-opacity="1" stop-color="rgb(36.520386%, 86.924744%, 90.429688%)" offset="0.976562"/><stop stop-opacity="1" stop-color="rgb(36.447144%, 87.142944%, 90.390015%)" offset="0.980469"/><stop stop-opacity="1" stop-color="rgb(36.373901%, 87.362671%, 90.351868%)" offset="0.984375"/><stop stop-opacity="1" stop-color="rgb(36.299133%, 87.580872%, 90.313721%)" offset="0.988281"/><stop stop-opacity="1" stop-color="rgb(36.225891%, 87.800598%, 90.275574%)" offset="0.992188"/><stop stop-opacity="1" stop-color="rgb(36.152649%, 88.018799%, 90.237427%)" offset="0.996094"/><stop stop-opacity="1" stop-color="rgb(36.079407%, 88.238525%, 90.19928%)" offset="1"/></linearGradient><clipPath id="b9051b4f8c"><rect x="0" width="178" y="0" height="249"/></clipPath><clipPath id="223b8232ab"><rect x="0" width="178" y="0" height="250"/></clipPath></defs><g clip-path="url(#818db3cc8e)"><g transform="matrix(1, 0, 0, 1, 0, -0.000000000000018291)"><g clip-path="url(#223b8232ab)"><g clip-path="url(#1e9c43569d)"><g clip-path="url(#c6e966867d)"><g transform="matrix(1, 0, 0, 1, 0, -0.000000000000018291)"><g clip-path="url(#b9051b4f8c)"><g clip-path="url(#1586e62786)"><g clip-path="url(#7237a2544e)"><path fill="url(#7e9c73c04e)" d="M 0 0.222656 L 0 248.859375 L 178 248.859375 L 178 0.222656 Z M 0 0.222656 " fill-rule="nonzero"/></g></g></g></g></g></g><g fill="#000000" fill-opacity="1"><g transform="translate(112.057137, 88.906923)"><g><path d="M -7.171875 0 L -7.171875 4.1875 L -5.109375 0.734375 L -4.390625 0.734375 L -2.34375 4.09375 L -2.34375 0 L -0.828125 0 L -0.828125 6.984375 L -2.15625 6.984375 L -4.78125 2.640625 L -7.34375 6.984375 L -8.671875 6.984375 L -8.6875 0 Z M -7.171875 0 "/></g></g></g><g fill="#000000" fill-opacity="1"><g transform="translate(102.541973, 88.906923)"><g><path d="M -2.875 5.4375 C -3.707031 5.4375 -4.347656 5.238281 -4.796875 4.84375 C -5.242188 4.445312 -5.46875 3.851562 -5.46875 3.0625 L -5.46875 0 L -4 0 L -4 0.671875 C -3.707031 0.171875 -3.164062 -0.078125 -2.375 -0.078125 C -1.957031 -0.078125 -1.597656 -0.0078125 -1.296875 0.125 C -0.992188 0.269531 -0.765625 0.460938 -0.609375 0.703125 C -0.453125 0.953125 -0.375 1.234375 -0.375 1.546875 C -0.375 2.046875 -0.5625 2.4375 -0.9375 2.71875 C -1.3125 3.007812 -1.890625 3.15625 -2.671875 3.15625 L -3.90625 3.15625 C -3.90625 3.488281 -3.800781 3.742188 -3.59375 3.921875 C -3.394531 4.109375 -3.085938 4.203125 -2.671875 4.203125 C -2.390625 4.203125 -2.109375 4.15625 -1.828125 4.0625 C -1.554688 3.976562 -1.320312 3.859375 -1.125 3.703125 L -0.5625 4.796875 C -0.851562 5.003906 -1.203125 5.160156 -1.609375 5.265625 C -2.023438 5.378906 -2.445312 5.4375 -2.875 5.4375 Z M -2.765625 0.96875 C -3.023438 0.96875 -3.257812 1.023438 -3.46875 1.140625 C -3.675781 1.265625 -3.820312 1.445312 -3.90625 1.6875 L -3.90625 2.25 L -2.84375 2.25 C -2.207031 2.25 -1.890625 2.035156 -1.890625 1.609375 C -1.890625 1.410156 -1.96875 1.253906 -2.125 1.140625 C -2.28125 1.023438 -2.492188 0.96875 -2.765625 0.96875 Z M -2.765625 0.96875 "/></g></g></g><g fill="#000000" fill-opacity="1"><g transform="translate(96.394484, 88.906923)"><g><path d="M -3.984375 5.4375 C -4.640625 5.4375 -5.171875 5.238281 -5.578125 4.84375 C -5.992188 4.445312 -6.203125 3.859375 -6.203125 3.078125 L -6.203125 0 L -4.640625 0 L -4.640625 2.828125 C -4.640625 3.253906 -4.546875 3.570312 -4.359375 3.78125 C -4.179688 3.988281 -3.914062 4.09375 -3.5625 4.09375 C -3.164062 4.09375 -2.847656 3.972656 -2.609375 3.734375 C -2.378906 3.492188 -2.265625 3.132812 -2.265625 2.65625 L -2.265625 0 L -0.71875 0 L -0.71875 5.359375 L -2.203125 5.359375 L -2.203125 4.734375 C -2.410156 4.960938 -2.664062 5.132812 -2.96875 5.25 C -3.269531 5.375 -3.609375 5.4375 -3.984375 5.4375 Z M -3.984375 5.4375 "/></g></g></g><g fill="#000000" fill-opacity="1"><g transform="translate(89.449897, 88.906923)"><g><path d="M -6.1875 7.390625 L -6.1875 0 L -4.6875 0 L -4.6875 0.625 C -4.300781 0.15625 -3.742188 -0.078125 -3.015625 -0.078125 C -2.515625 -0.078125 -2.054688 0.03125 -1.640625 0.25 C -1.234375 0.476562 -0.914062 0.800781 -0.6875 1.21875 C -0.457031 1.644531 -0.34375 2.132812 -0.34375 2.6875 C -0.34375 3.238281 -0.457031 3.722656 -0.6875 4.140625 C -0.914062 4.554688 -1.234375 4.875 -1.640625 5.09375 C -2.054688 5.320312 -2.515625 5.4375 -3.015625 5.4375 C -3.703125 5.4375 -4.238281 5.222656 -4.625 4.796875 L -4.625 7.390625 Z M -3.296875 1.203125 C -3.679688 1.203125 -4.003906 1.332031 -4.265625 1.59375 C -4.523438 1.863281 -4.65625 2.226562 -4.65625 2.6875 C -4.65625 3.132812 -4.523438 3.492188 -4.265625 3.765625 C -4.003906 4.035156 -3.679688 4.171875 -3.296875 4.171875 C -2.890625 4.171875 -2.554688 4.035156 -2.296875 3.765625 C -2.035156 3.492188 -1.90625 3.132812 -1.90625 2.6875 C -1.90625 2.226562 -2.035156 1.863281 -2.296875 1.59375 C -2.554688 1.332031 -2.890625 1.203125 -3.296875 1.203125 Z M -3.296875 1.203125 "/></g></g></g><g fill="#000000" fill-opacity="1"><g transform="translate(82.555146, 88.906923)"><g><path d="M -2.875 5.4375 C -3.707031 5.4375 -4.347656 5.238281 -4.796875 4.84375 C -5.242188 4.445312 -5.46875 3.851562 -5.46875 3.0625 L -5.46875 0 L -4 0 L -4 0.671875 C -3.707031 0.171875 -3.164062 -0.078125 -2.375 -0.078125 C -1.957031 -0.078125 -1.597656 -0.0078125 -1.296875 0.125 C -0.992188 0.269531 -0.765625 0.460938 -0.609375 0.703125 C -0.453125 0.953125 -0.375 1.234375 -0.375 1.546875 C -0.375 2.046875 -0.5625 2.4375 -0.9375 2.71875 C -1.3125 3.007812 -1.890625 3.15625 -2.671875 3.15625 L -3.90625 3.15625 C -3.90625 3.488281 -3.800781 3.742188 -3.59375 3.921875 C -3.394531 4.109375 -3.085938 4.203125 -2.671875 4.203125 C -2.390625 4.203125 -2.109375 4.15625 -1.828125 4.0625 C -1.554688 3.976562 -1.320312 3.859375 -1.125 3.703125 L -0.5625 4.796875 C -0.851562 5.003906 -1.203125 5.160156 -1.609375 5.265625 C -2.023438 5.378906 -2.445312 5.4375 -2.875 5.4375 Z M -2.765625 0.96875 C -3.023438 0.96875 -3.257812 1.023438 -3.46875 1.140625 C -3.675781 1.265625 -3.820312 1.445312 -3.90625 1.6875 L -3.90625 2.25 L -2.84375 2.25 C -2.207031 2.25 -1.890625 2.035156 -1.890625 1.609375 C -1.890625 1.410156 -1.96875 1.253906 -2.125 1.140625 C -2.28125 1.023438 -2.492188 0.96875 -2.765625 0.96875 Z M -2.765625 0.96875 "/></g></g></g><g fill="#000000" fill-opacity="1"><g transform="translate(76.407658, 88.906923)"><g><path d="M -4.171875 0.265625 C -4.023438 0.148438 -3.835938 0.0625 -3.609375 0 C -3.390625 -0.0507812 -3.15625 -0.078125 -2.90625 -0.078125 C -2.269531 -0.078125 -1.773438 0.0820312 -1.421875 0.40625 C -1.078125 0.726562 -0.90625 1.207031 -0.90625 1.84375 L -0.90625 4.046875 L -0.078125 4.046875 L -0.078125 5.25 L -0.90625 5.25 L -0.90625 6.546875 L -2.46875 6.546875 L -2.46875 5.25 L -3.796875 5.25 L -3.796875 4.046875 L -2.46875 4.046875 L -2.46875 1.859375 C -2.46875 1.640625 -2.523438 1.46875 -2.640625 1.34375 C -2.753906 1.21875 -2.914062 1.15625 -3.125 1.15625 C -3.375 1.15625 -3.585938 1.222656 -3.765625 1.359375 Z M -4.171875 0.265625 "/></g></g></g><g fill="#000000" fill-opacity="1"><g transform="translate(72.242929, 88.906923)"><g><path d="M -5.96875 2.65625 C -5.96875 2.632812 -5.957031 2.5 -5.9375 2.25 L -1.890625 2.25 C -1.960938 1.914062 -2.132812 1.648438 -2.40625 1.453125 C -2.675781 1.265625 -3.015625 1.171875 -3.421875 1.171875 C -3.703125 1.171875 -3.945312 1.210938 -4.15625 1.296875 C -4.375 1.378906 -4.578125 1.507812 -4.765625 1.6875 L -5.59375 0.78125 C -5.082031 0.207031 -4.34375 -0.078125 -3.375 -0.078125 C -2.769531 -0.078125 -2.234375 0.0351562 -1.765625 0.265625 C -1.304688 0.503906 -0.945312 0.832031 -0.6875 1.25 C -0.4375 1.675781 -0.3125 2.15625 -0.3125 2.6875 C -0.3125 3.207031 -0.4375 3.675781 -0.6875 4.09375 C -0.9375 4.519531 -1.28125 4.847656 -1.71875 5.078125 C -2.15625 5.316406 -2.644531 5.4375 -3.1875 5.4375 C -3.707031 5.4375 -4.179688 5.320312 -4.609375 5.09375 C -5.035156 4.875 -5.367188 4.550781 -5.609375 4.125 C -5.847656 3.707031 -5.96875 3.21875 -5.96875 2.65625 Z M -3.1875 4.265625 C -2.832031 4.265625 -2.535156 4.164062 -2.296875 3.96875 C -2.054688 3.769531 -1.910156 3.5 -1.859375 3.15625 L -4.5 3.15625 C -4.445312 3.488281 -4.300781 3.753906 -4.0625 3.953125 C -3.820312 4.160156 -3.53125 4.265625 -3.1875 4.265625 Z M -3.1875 4.265625 "/></g></g></g><g fill="#000000" fill-opacity="1"><g transform="translate(133.736339, 75.450866)"><g><path d="M -2.5 6.34375 L -0.046875 6.34375 L -0.046875 6.984375 L -5.6875 6.984375 L -5.6875 6.34375 L -3.234375 6.34375 L -3.234375 0 L -2.5 0 Z M -2.5 6.34375 "/></g></g></g><g fill="#000000" fill-opacity="1"><g transform="translate(128.01728, 75.450866)"><g><path d="M -3.65625 5.28125 C -4.3125 5.28125 -4.832031 5.085938 -5.21875 4.703125 C -5.613281 4.328125 -5.8125 3.773438 -5.8125 3.046875 L -5.8125 0 L -5.109375 0 L -5.109375 2.96875 C -5.109375 3.507812 -4.96875 3.921875 -4.6875 4.203125 C -4.414062 4.492188 -4.03125 4.640625 -3.53125 4.640625 C -2.96875 4.640625 -2.519531 4.472656 -2.1875 4.140625 C -1.851562 3.804688 -1.6875 3.34375 -1.6875 2.75 L -1.6875 0 L -0.984375 0 L -0.984375 7.390625 L -1.6875 7.390625 L -1.6875 4.328125 C -1.882812 4.628906 -2.148438 4.863281 -2.484375 5.03125 C -2.828125 5.195312 -3.21875 5.28125 -3.65625 5.28125 Z M -3.65625 5.28125 "/></g></g></g><g fill="#000000" fill-opacity="1"><g transform="translate(121.252054, 75.450866)"><g><path d="M -5.546875 2.40625 L -1.171875 2.40625 C -1.203125 1.851562 -1.40625 1.410156 -1.78125 1.078125 C -2.164062 0.742188 -2.648438 0.578125 -3.234375 0.578125 C -3.554688 0.578125 -3.851562 0.632812 -4.125 0.75 C -4.394531 0.863281 -4.628906 1.035156 -4.828125 1.265625 L -5.234375 0.8125 C -5.003906 0.53125 -4.710938 0.316406 -4.359375 0.171875 C -4.015625 0.0234375 -3.628906 -0.046875 -3.203125 -0.046875 C -2.671875 -0.046875 -2.195312 0.0664062 -1.78125 0.296875 C -1.363281 0.523438 -1.035156 0.84375 -0.796875 1.25 C -0.566406 1.65625 -0.453125 2.113281 -0.453125 2.625 C -0.453125 3.132812 -0.5625 3.59375 -0.78125 4 C -1.007812 4.40625 -1.316406 4.71875 -1.703125 4.9375 C -2.097656 5.164062 -2.535156 5.28125 -3.015625 5.28125 C -3.503906 5.28125 -3.941406 5.164062 -4.328125 4.9375 C -4.710938 4.71875 -5.015625 4.40625 -5.234375 4 C -5.453125 3.601562 -5.5625 3.144531 -5.5625 2.625 Z M -3.015625 4.671875 C -2.515625 4.671875 -2.09375 4.507812 -1.75 4.1875 C -1.40625 3.863281 -1.210938 3.445312 -1.171875 2.9375 L -4.890625 2.9375 C -4.835938 3.445312 -4.640625 3.863281 -4.296875 4.1875 C -3.953125 4.507812 -3.523438 4.671875 -3.015625 4.671875 Z M -3.015625 4.671875 "/></g></g></g><g fill="#000000" fill-opacity="1"><g transform="translate(115.23409, 75.450866)"><g/></g></g><g fill="#000000" fill-opacity="1"><g transform="translate(112.623646, 75.450866)"><g><path d="M -5.765625 7.390625 L -5.765625 0 L -5.09375 0 L -5.09375 1.03125 C -4.882812 0.6875 -4.601562 0.421875 -4.25 0.234375 C -3.90625 0.046875 -3.515625 -0.046875 -3.078125 -0.046875 C -2.578125 -0.046875 -2.128906 0.0625 -1.734375 0.28125 C -1.335938 0.507812 -1.023438 0.828125 -0.796875 1.234375 C -0.566406 1.640625 -0.453125 2.101562 -0.453125 2.625 C -0.453125 3.144531 -0.566406 3.601562 -0.796875 4 C -1.023438 4.40625 -1.335938 4.71875 -1.734375 4.9375 C -2.128906 5.164062 -2.578125 5.28125 -3.078125 5.28125 C -3.492188 5.28125 -3.875 5.191406 -4.21875 5.015625 C -4.5625 4.835938 -4.84375 4.582031 -5.0625 4.25 L -5.0625 7.390625 Z M -3.125 0.578125 C -3.488281 0.578125 -3.816406 0.660156 -4.109375 0.828125 C -4.410156 1.003906 -4.644531 1.25 -4.8125 1.5625 C -4.988281 1.875 -5.078125 2.226562 -5.078125 2.625 C -5.078125 3.019531 -4.988281 3.375 -4.8125 3.6875 C -4.644531 4 -4.410156 4.238281 -4.109375 4.40625 C -3.816406 4.582031 -3.488281 4.671875 -3.125 4.671875 C -2.757812 4.671875 -2.425781 4.582031 -2.125 4.40625 C -1.832031 4.238281 -1.597656 4 -1.421875 3.6875 C -1.253906 3.375 -1.171875 3.019531 -1.171875 2.625 C -1.171875 2.226562 -1.253906 1.875 -1.421875 1.5625 C -1.597656 1.25 -1.832031 1.003906 -2.125 0.828125 C -2.425781 0.660156 -2.757812 0.578125 -3.125 0.578125 Z M -3.125 0.578125 "/></g></g></g><g fill="#000000" fill-opacity="1"><g transform="translate(105.868378, 75.450866)"><g><path d="M -0.984375 5.25 L -1.6875 5.25 L -1.6875 0 L -0.984375 0 Z M -1.359375 6.390625 C -1.210938 6.390625 -1.085938 6.4375 -0.984375 6.53125 C -0.878906 6.632812 -0.828125 6.753906 -0.828125 6.890625 C -0.828125 7.023438 -0.878906 7.140625 -0.984375 7.234375 C -1.085938 7.335938 -1.210938 7.390625 -1.359375 7.390625 C -1.503906 7.390625 -1.625 7.34375 -1.71875 7.25 C -1.820312 7.15625 -1.875 7.039062 -1.875 6.90625 C -1.875 6.757812 -1.820312 6.632812 -1.71875 6.53125 C -1.625 6.4375 -1.503906 6.390625 -1.359375 6.390625 Z M -1.359375 6.390625 "/></g></g></g><g fill="#000000" fill-opacity="1"><g transform="translate(103.188193, 75.450866)"><g><path d="M -2.390625 -0.046875 C -1.960938 -0.046875 -1.554688 0.0078125 -1.171875 0.125 C -0.785156 0.25 -0.484375 0.40625 -0.265625 0.59375 L -0.578125 1.15625 C -0.796875 0.976562 -1.070312 0.832031 -1.40625 0.71875 C -1.738281 0.613281 -2.082031 0.5625 -2.4375 0.5625 C -2.914062 0.5625 -3.269531 0.632812 -3.5 0.78125 C -3.726562 0.9375 -3.84375 1.148438 -3.84375 1.421875 C -3.84375 1.617188 -3.78125 1.769531 -3.65625 1.875 C -3.53125 1.988281 -3.367188 2.070312 -3.171875 2.125 C -2.984375 2.1875 -2.726562 2.242188 -2.40625 2.296875 C -1.988281 2.367188 -1.648438 2.445312 -1.390625 2.53125 C -1.128906 2.613281 -0.90625 2.753906 -0.71875 2.953125 C -0.539062 3.160156 -0.453125 3.4375 -0.453125 3.78125 C -0.453125 4.226562 -0.632812 4.585938 -1 4.859375 C -1.363281 5.140625 -1.867188 5.28125 -2.515625 5.28125 C -2.859375 5.28125 -3.195312 5.234375 -3.53125 5.140625 C -3.875 5.054688 -4.15625 4.941406 -4.375 4.796875 L -4.0625 4.234375 C -3.632812 4.523438 -3.117188 4.671875 -2.515625 4.671875 C -2.066406 4.671875 -1.726562 4.59375 -1.5 4.4375 C -1.269531 4.28125 -1.15625 4.070312 -1.15625 3.8125 C -1.15625 3.613281 -1.21875 3.453125 -1.34375 3.328125 C -1.476562 3.210938 -1.640625 3.125 -1.828125 3.0625 C -2.023438 3.007812 -2.289062 2.953125 -2.625 2.890625 C -3.050781 2.804688 -3.390625 2.722656 -3.640625 2.640625 C -3.890625 2.566406 -4.101562 2.429688 -4.28125 2.234375 C -4.46875 2.046875 -4.5625 1.785156 -4.5625 1.453125 C -4.5625 0.984375 -4.367188 0.613281 -3.984375 0.34375 C -3.597656 0.0820312 -3.066406 -0.046875 -2.390625 -0.046875 Z M -2.390625 -0.046875 "/></g></g></g><g fill="#000000" fill-opacity="1"><g transform="translate(98.316035, 75.450866)"><g><path d="M -3.15625 -0.046875 C -2.632812 -0.046875 -2.171875 0.0625 -1.765625 0.28125 C -1.359375 0.507812 -1.035156 0.828125 -0.796875 1.234375 C -0.566406 1.648438 -0.453125 2.113281 -0.453125 2.625 C -0.453125 3.132812 -0.566406 3.59375 -0.796875 4 C -1.035156 4.40625 -1.359375 4.71875 -1.765625 4.9375 C -2.171875 5.164062 -2.632812 5.28125 -3.15625 5.28125 C -3.613281 5.28125 -4.019531 5.191406 -4.375 5.015625 C -4.726562 4.835938 -5.007812 4.582031 -5.21875 4.25 L -4.6875 3.890625 C -4.507812 4.148438 -4.285156 4.34375 -4.015625 4.46875 C -3.753906 4.601562 -3.46875 4.671875 -3.15625 4.671875 C -2.78125 4.671875 -2.441406 4.582031 -2.140625 4.40625 C -1.835938 4.238281 -1.597656 4 -1.421875 3.6875 C -1.253906 3.375 -1.171875 3.019531 -1.171875 2.625 C -1.171875 2.21875 -1.253906 1.859375 -1.421875 1.546875 C -1.597656 1.242188 -1.835938 1.003906 -2.140625 0.828125 C -2.441406 0.660156 -2.78125 0.578125 -3.15625 0.578125 C -3.46875 0.578125 -3.753906 0.640625 -4.015625 0.765625 C -4.285156 0.890625 -4.507812 1.082031 -4.6875 1.34375 L -5.21875 0.984375 C -5.007812 0.648438 -4.722656 0.394531 -4.359375 0.21875 C -4.003906 0.0390625 -3.601562 -0.046875 -3.15625 -0.046875 Z M -3.15625 -0.046875 "/></g></g></g><g fill="#000000" fill-opacity="1"><g transform="translate(92.646778, 75.450866)"><g><path d="M -3.75 0.3125 C -3.613281 0.195312 -3.445312 0.109375 -3.25 0.046875 C -3.050781 -0.015625 -2.847656 -0.046875 -2.640625 -0.046875 C -2.148438 -0.046875 -1.769531 0.0820312 -1.5 0.34375 C -1.238281 0.613281 -1.109375 0.988281 -1.109375 1.46875 L -1.109375 4.640625 L -0.171875 4.640625 L -0.171875 5.25 L -1.109375 5.25 L -1.109375 6.390625 L -1.8125 6.390625 L -1.8125 5.25 L -3.40625 5.25 L -3.40625 4.640625 L -1.8125 4.640625 L -1.8125 1.515625 C -1.8125 1.203125 -1.890625 0.960938 -2.046875 0.796875 C -2.203125 0.640625 -2.425781 0.5625 -2.71875 0.5625 C -2.863281 0.5625 -3.003906 0.582031 -3.140625 0.625 C -3.273438 0.675781 -3.394531 0.742188 -3.5 0.828125 Z M -3.75 0.3125 "/></g></g></g><g fill="#000000" fill-opacity="1"><g transform="translate(88.601593, 75.450866)"><g><path d="M -0.984375 5.25 L -1.6875 5.25 L -1.6875 0 L -0.984375 0 Z M -1.359375 6.390625 C -1.210938 6.390625 -1.085938 6.4375 -0.984375 6.53125 C -0.878906 6.632812 -0.828125 6.753906 -0.828125 6.890625 C -0.828125 7.023438 -0.878906 7.140625 -0.984375 7.234375 C -1.085938 7.335938 -1.210938 7.390625 -1.359375 7.390625 C -1.503906 7.390625 -1.625 7.34375 -1.71875 7.25 C -1.820312 7.15625 -1.875 7.039062 -1.875 6.90625 C -1.875 6.757812 -1.820312 6.632812 -1.71875 6.53125 C -1.625 6.4375 -1.503906 6.390625 -1.359375 6.390625 Z M -1.359375 6.390625 "/></g></g></g><g fill="#000000" fill-opacity="1"><g transform="translate(85.921408, 75.450866)"><g><path d="M -3.15625 -0.046875 C -2.632812 -0.046875 -2.171875 0.0625 -1.765625 0.28125 C -1.359375 0.507812 -1.035156 0.828125 -0.796875 1.234375 C -0.566406 1.648438 -0.453125 2.113281 -0.453125 2.625 C -0.453125 3.132812 -0.566406 3.59375 -0.796875 4 C -1.035156 4.40625 -1.359375 4.71875 -1.765625 4.9375 C -2.171875 5.164062 -2.632812 5.28125 -3.15625 5.28125 C -3.613281 5.28125 -4.019531 5.191406 -4.375 5.015625 C -4.726562 4.835938 -5.007812 4.582031 -5.21875 4.25 L -4.6875 3.890625 C -4.507812 4.148438 -4.285156 4.34375 -4.015625 4.46875 C -3.753906 4.601562 -3.46875 4.671875 -3.15625 4.671875 C -2.78125 4.671875 -2.441406 4.582031 -2.140625 4.40625 C -1.835938 4.238281 -1.597656 4 -1.421875 3.6875 C -1.253906 3.375 -1.171875 3.019531 -1.171875 2.625 C -1.171875 2.21875 -1.253906 1.859375 -1.421875 1.546875 C -1.597656 1.242188 -1.835938 1.003906 -2.140625 0.828125 C -2.441406 0.660156 -2.78125 0.578125 -3.15625 0.578125 C -3.46875 0.578125 -3.753906 0.640625 -4.015625 0.765625 C -4.285156 0.890625 -4.507812 1.082031 -4.6875 1.34375 L -5.21875 0.984375 C -5.007812 0.648438 -4.722656 0.394531 -4.359375 0.21875 C -4.003906 0.0390625 -3.601562 -0.046875 -3.15625 -0.046875 Z M -3.15625 -0.046875 "/></g></g></g><g fill="#000000" fill-opacity="1"><g transform="translate(80.252151, 75.450866)"><g><path d="M -3.75 0.3125 C -3.613281 0.195312 -3.445312 0.109375 -3.25 0.046875 C -3.050781 -0.015625 -2.847656 -0.046875 -2.640625 -0.046875 C -2.148438 -0.046875 -1.769531 0.0820312 -1.5 0.34375 C -1.238281 0.613281 -1.109375 0.988281 -1.109375 1.46875 L -1.109375 4.640625 L -0.171875 4.640625 L -0.171875 5.25 L -1.109375 5.25 L -1.109375 6.390625 L -1.8125 6.390625 L -1.8125 5.25 L -3.40625 5.25 L -3.40625 4.640625 L -1.8125 4.640625 L -1.8125 1.515625 C -1.8125 1.203125 -1.890625 0.960938 -2.046875 0.796875 C -2.203125 0.640625 -2.425781 0.5625 -2.71875 0.5625 C -2.863281 0.5625 -3.003906 0.582031 -3.140625 0.625 C -3.273438 0.675781 -3.394531 0.742188 -3.5 0.828125 Z M -3.75 0.3125 "/></g></g></g><g fill="#000000" fill-opacity="1"><g transform="translate(76.206966, 75.450866)"><g/></g></g><g fill="#000000" fill-opacity="1"><g transform="translate(73.596522, 75.450866)"><g><path d="M -5.84375 5.25 L -5.84375 0.640625 C -5.84375 -0.253906 -5.625 -0.914062 -5.1875 -1.34375 C -4.75 -1.769531 -4.09375 -1.984375 -3.21875 -1.984375 C -2.738281 -1.984375 -2.28125 -1.910156 -1.84375 -1.765625 C -1.40625 -1.628906 -1.050781 -1.429688 -0.78125 -1.171875 L -1.140625 -0.640625 C -1.390625 -0.867188 -1.695312 -1.046875 -2.0625 -1.171875 C -2.425781 -1.296875 -2.804688 -1.359375 -3.203125 -1.359375 C -3.867188 -1.359375 -4.359375 -1.203125 -4.671875 -0.890625 C -4.984375 -0.578125 -5.140625 -0.0976562 -5.140625 0.546875 L -5.140625 1.21875 C -4.921875 0.882812 -4.628906 0.628906 -4.265625 0.453125 C -3.910156 0.285156 -3.519531 0.203125 -3.09375 0.203125 C -2.601562 0.203125 -2.15625 0.304688 -1.75 0.515625 C -1.34375 0.734375 -1.023438 1.035156 -0.796875 1.421875 C -0.566406 1.816406 -0.453125 2.257812 -0.453125 2.75 C -0.453125 3.238281 -0.566406 3.675781 -0.796875 4.0625 C -1.023438 4.445312 -1.335938 4.742188 -1.734375 4.953125 C -2.140625 5.171875 -2.59375 5.28125 -3.09375 5.28125 C -3.539062 5.28125 -3.941406 5.191406 -4.296875 5.015625 C -4.648438 4.835938 -4.9375 4.578125 -5.15625 4.234375 L -5.15625 5.25 Z M -3.15625 0.828125 C -3.539062 0.828125 -3.882812 0.90625 -4.1875 1.0625 C -4.488281 1.226562 -4.722656 1.457031 -4.890625 1.75 C -5.066406 2.039062 -5.15625 2.375 -5.15625 2.75 C -5.15625 3.125 -5.066406 3.453125 -4.890625 3.734375 C -4.722656 4.023438 -4.488281 4.253906 -4.1875 4.421875 C -3.882812 4.585938 -3.539062 4.671875 -3.15625 4.671875 C -2.78125 4.671875 -2.441406 4.585938 -2.140625 4.421875 C -1.835938 4.265625 -1.597656 4.039062 -1.421875 3.75 C -1.253906 3.457031 -1.171875 3.125 -1.171875 2.75 C -1.171875 2.375 -1.253906 2.039062 -1.421875 1.75 C -1.597656 1.457031 -1.835938 1.226562 -2.140625 1.0625 C -2.441406 0.90625 -2.78125 0.828125 -3.15625 0.828125 Z M -3.15625 0.828125 "/></g></g></g><g fill="#000000" fill-opacity="1"><g transform="translate(66.761543, 75.450866)"><g><path d="M -2.828125 5.28125 C -3.503906 5.28125 -4.023438 5.109375 -4.390625 4.765625 C -4.753906 4.421875 -4.9375 3.914062 -4.9375 3.25 L -4.9375 0 L -4.265625 0 L -4.265625 0.8125 C -4.109375 0.539062 -3.875 0.328125 -3.5625 0.171875 C -3.25 0.0234375 -2.882812 -0.046875 -2.46875 -0.046875 C -1.875 -0.046875 -1.40625 0.0859375 -1.0625 0.359375 C -0.71875 0.640625 -0.546875 1.007812 -0.546875 1.46875 C -0.546875 1.914062 -0.707031 2.273438 -1.03125 2.546875 C -1.351562 2.816406 -1.867188 2.953125 -2.578125 2.953125 L -4.234375 2.953125 L -4.234375 3.28125 C -4.234375 3.726562 -4.109375 4.070312 -3.859375 4.3125 C -3.609375 4.550781 -3.238281 4.671875 -2.75 4.671875 C -2.414062 4.671875 -2.09375 4.613281 -1.78125 4.5 C -1.476562 4.394531 -1.21875 4.242188 -1 4.046875 L -0.6875 4.578125 C -0.957031 4.804688 -1.273438 4.976562 -1.640625 5.09375 C -2.015625 5.21875 -2.410156 5.28125 -2.828125 5.28125 Z M -2.578125 0.515625 C -2.972656 0.515625 -3.3125 0.601562 -3.59375 0.78125 C -3.882812 0.96875 -4.097656 1.234375 -4.234375 1.578125 L -4.234375 2.4375 L -2.59375 2.4375 C -1.695312 2.4375 -1.25 2.125 -1.25 1.5 C -1.25 1.1875 -1.363281 0.941406 -1.59375 0.765625 C -1.820312 0.597656 -2.148438 0.515625 -2.578125 0.515625 Z M -2.578125 0.515625 "/></g></g></g><g fill="#000000" fill-opacity="1"><g transform="translate(60.883063, 75.450866)"><g><path d="M -7.53125 5.28125 C -8.1875 5.28125 -8.703125 5.085938 -9.078125 4.703125 C -9.453125 4.328125 -9.640625 3.773438 -9.640625 3.046875 L -9.640625 0 L -8.9375 0 L -8.9375 2.96875 C -8.9375 3.507812 -8.800781 3.921875 -8.53125 4.203125 C -8.269531 4.492188 -7.898438 4.640625 -7.421875 4.640625 C -6.878906 4.640625 -6.453125 4.472656 -6.140625 4.140625 C -5.828125 3.804688 -5.671875 3.34375 -5.671875 2.75 L -5.671875 0 L -4.96875 0 L -4.96875 2.96875 C -4.96875 3.507812 -4.832031 3.921875 -4.5625 4.203125 C -4.300781 4.492188 -3.929688 4.640625 -3.453125 4.640625 C -2.910156 4.640625 -2.476562 4.472656 -2.15625 4.140625 C -1.84375 3.804688 -1.6875 3.34375 -1.6875 2.75 L -1.6875 0 L -0.984375 0 L -0.984375 5.25 L -1.671875 5.25 L -1.671875 4.28125 C -1.847656 4.601562 -2.101562 4.847656 -2.4375 5.015625 C -2.769531 5.191406 -3.15625 5.28125 -3.59375 5.28125 C -4.03125 5.28125 -4.410156 5.1875 -4.734375 5 C -5.054688 4.8125 -5.296875 4.535156 -5.453125 4.171875 C -5.640625 4.515625 -5.914062 4.785156 -6.28125 4.984375 C -6.644531 5.179688 -7.0625 5.28125 -7.53125 5.28125 Z M -7.53125 5.28125 "/></g></g></g><g fill="#000000" fill-opacity="1"><g transform="translate(50.291845, 75.450866)"><g><path d="M -5.546875 2.40625 L -1.171875 2.40625 C -1.203125 1.851562 -1.40625 1.410156 -1.78125 1.078125 C -2.164062 0.742188 -2.648438 0.578125 -3.234375 0.578125 C -3.554688 0.578125 -3.851562 0.632812 -4.125 0.75 C -4.394531 0.863281 -4.628906 1.035156 -4.828125 1.265625 L -5.234375 0.8125 C -5.003906 0.53125 -4.710938 0.316406 -4.359375 0.171875 C -4.015625 0.0234375 -3.628906 -0.046875 -3.203125 -0.046875 C -2.671875 -0.046875 -2.195312 0.0664062 -1.78125 0.296875 C -1.363281 0.523438 -1.035156 0.84375 -0.796875 1.25 C -0.566406 1.65625 -0.453125 2.113281 -0.453125 2.625 C -0.453125 3.132812 -0.5625 3.59375 -0.78125 4 C -1.007812 4.40625 -1.316406 4.71875 -1.703125 4.9375 C -2.097656 5.164062 -2.535156 5.28125 -3.015625 5.28125 C -3.503906 5.28125 -3.941406 5.164062 -4.328125 4.9375 C -4.710938 4.71875 -5.015625 4.40625 -5.234375 4 C -5.453125 3.601562 -5.5625 3.144531 -5.5625 2.625 Z M -3.015625 4.671875 C -2.515625 4.671875 -2.09375 4.507812 -1.75 4.1875 C -1.40625 3.863281 -1.210938 3.445312 -1.171875 2.9375 L -4.890625 2.9375 C -4.835938 3.445312 -4.640625 3.863281 -4.296875 4.1875 C -3.953125 4.507812 -3.523438 4.671875 -3.015625 4.671875 Z M -3.015625 4.671875 "/></g></g></g><g fill="#000000" fill-opacity="1"><g transform="translate(64.639089, 159.802293)"><g><path d="M 7.171875 0 L 7.171875 -4.1875 L 5.109375 -0.734375 L 4.390625 -0.734375 L 2.34375 -4.09375 L 2.34375 0 L 0.828125 0 L 0.828125 -6.984375 L 2.15625 -6.984375 L 4.78125 -2.640625 L 7.34375 -6.984375 L 8.671875 -6.984375 L 8.6875 0 Z M 7.171875 0 "/></g></g></g><g fill="#000000" fill-opacity="1"><g transform="translate(74.154254, 159.802293)"><g><path d="M 2.875 -5.4375 C 3.707031 -5.4375 4.347656 -5.238281 4.796875 -4.84375 C 5.242188 -4.445312 5.46875 -3.851562 5.46875 -3.0625 L 5.46875 0 L 4 0 L 4 -0.671875 C 3.707031 -0.171875 3.164062 0.078125 2.375 0.078125 C 1.957031 0.078125 1.597656 0.0078125 1.296875 -0.125 C 0.992188 -0.269531 0.765625 -0.460938 0.609375 -0.703125 C 0.453125 -0.953125 0.375 -1.234375 0.375 -1.546875 C 0.375 -2.046875 0.5625 -2.4375 0.9375 -2.71875 C 1.3125 -3.007812 1.890625 -3.15625 2.671875 -3.15625 L 3.90625 -3.15625 C 3.90625 -3.488281 3.800781 -3.742188 3.59375 -3.921875 C 3.394531 -4.109375 3.085938 -4.203125 2.671875 -4.203125 C 2.390625 -4.203125 2.109375 -4.15625 1.828125 -4.0625 C 1.554688 -3.976562 1.320312 -3.859375 1.125 -3.703125 L 0.5625 -4.796875 C 0.851562 -5.003906 1.203125 -5.160156 1.609375 -5.265625 C 2.023438 -5.378906 2.445312 -5.4375 2.875 -5.4375 Z M 2.765625 -0.96875 C 3.023438 -0.96875 3.257812 -1.023438 3.46875 -1.140625 C 3.675781 -1.265625 3.820312 -1.445312 3.90625 -1.6875 L 3.90625 -2.25 L 2.84375 -2.25 C 2.207031 -2.25 1.890625 -2.035156 1.890625 -1.609375 C 1.890625 -1.410156 1.96875 -1.253906 2.125 -1.140625 C 2.28125 -1.023438 2.492188 -0.96875 2.765625 -0.96875 Z M 2.765625 -0.96875 "/></g></g></g><g fill="#000000" fill-opacity="1"><g transform="translate(80.301743, 159.802293)"><g><path d="M 3.984375 -5.4375 C 4.640625 -5.4375 5.171875 -5.238281 5.578125 -4.84375 C 5.992188 -4.445312 6.203125 -3.859375 6.203125 -3.078125 L 6.203125 0 L 4.640625 0 L 4.640625 -2.828125 C 4.640625 -3.253906 4.546875 -3.570312 4.359375 -3.78125 C 4.179688 -3.988281 3.914062 -4.09375 3.5625 -4.09375 C 3.164062 -4.09375 2.847656 -3.972656 2.609375 -3.734375 C 2.378906 -3.492188 2.265625 -3.132812 2.265625 -2.65625 L 2.265625 0 L 0.71875 0 L 0.71875 -5.359375 L 2.203125 -5.359375 L 2.203125 -4.734375 C 2.410156 -4.960938 2.664062 -5.132812 2.96875 -5.25 C 3.269531 -5.375 3.609375 -5.4375 3.984375 -5.4375 Z M 3.984375 -5.4375 "/></g></g></g><g fill="#000000" fill-opacity="1"><g transform="translate(87.246331, 159.802293)"><g><path d="M 6.1875 -7.390625 L 6.1875 0 L 4.6875 0 L 4.6875 -0.625 C 4.300781 -0.15625 3.742188 0.078125 3.015625 0.078125 C 2.515625 0.078125 2.054688 -0.03125 1.640625 -0.25 C 1.234375 -0.476562 0.914062 -0.800781 0.6875 -1.21875 C 0.457031 -1.644531 0.34375 -2.132812 0.34375 -2.6875 C 0.34375 -3.238281 0.457031 -3.722656 0.6875 -4.140625 C 0.914062 -4.554688 1.234375 -4.875 1.640625 -5.09375 C 2.054688 -5.320312 2.515625 -5.4375 3.015625 -5.4375 C 3.703125 -5.4375 4.238281 -5.222656 4.625 -4.796875 L 4.625 -7.390625 Z M 3.296875 -1.203125 C 3.679688 -1.203125 4.003906 -1.332031 4.265625 -1.59375 C 4.523438 -1.863281 4.65625 -2.226562 4.65625 -2.6875 C 4.65625 -3.132812 4.523438 -3.492188 4.265625 -3.765625 C 4.003906 -4.035156 3.679688 -4.171875 3.296875 -4.171875 C 2.890625 -4.171875 2.554688 -4.035156 2.296875 -3.765625 C 2.035156 -3.492188 1.90625 -3.132812 1.90625 -2.6875 C 1.90625 -2.226562 2.035156 -1.863281 2.296875 -1.59375 C 2.554688 -1.332031 2.890625 -1.203125 3.296875 -1.203125 Z M 3.296875 -1.203125 "/></g></g></g><g fill="#000000" fill-opacity="1"><g transform="translate(94.141082, 159.802293)"><g><path d="M 2.875 -5.4375 C 3.707031 -5.4375 4.347656 -5.238281 4.796875 -4.84375 C 5.242188 -4.445312 5.46875 -3.851562 5.46875 -3.0625 L 5.46875 0 L 4 0 L 4 -0.671875 C 3.707031 -0.171875 3.164062 0.078125 2.375 0.078125 C 1.957031 0.078125 1.597656 0.0078125 1.296875 -0.125 C 0.992188 -0.269531 0.765625 -0.460938 0.609375 -0.703125 C 0.453125 -0.953125 0.375 -1.234375 0.375 -1.546875 C 0.375 -2.046875 0.5625 -2.4375 0.9375 -2.71875 C 1.3125 -3.007812 1.890625 -3.15625 2.671875 -3.15625 L 3.90625 -3.15625 C 3.90625 -3.488281 3.800781 -3.742188 3.59375 -3.921875 C 3.394531 -4.109375 3.085938 -4.203125 2.671875 -4.203125 C 2.390625 -4.203125 2.109375 -4.15625 1.828125 -4.0625 C 1.554688 -3.976562 1.320312 -3.859375 1.125 -3.703125 L 0.5625 -4.796875 C 0.851562 -5.003906 1.203125 -5.160156 1.609375 -5.265625 C 2.023438 -5.378906 2.445312 -5.4375 2.875 -5.4375 Z M 2.765625 -0.96875 C 3.023438 -0.96875 3.257812 -1.023438 3.46875 -1.140625 C 3.675781 -1.265625 3.820312 -1.445312 3.90625 -1.6875 L 3.90625 -2.25 L 2.84375 -2.25 C 2.207031 -2.25 1.890625 -2.035156 1.890625 -1.609375 C 1.890625 -1.410156 1.96875 -1.253906 2.125 -1.140625 C 2.28125 -1.023438 2.492188 -0.96875 2.765625 -0.96875 Z M 2.765625 -0.96875 "/></g></g></g><g fill="#000000" fill-opacity="1"><g transform="translate(100.288571, 159.802293)"><g><path d="M 4.171875 -0.265625 C 4.023438 -0.148438 3.835938 -0.0625 3.609375 0 C 3.390625 0.0507812 3.15625 0.078125 2.90625 0.078125 C 2.269531 0.078125 1.773438 -0.0820312 1.421875 -0.40625 C 1.078125 -0.726562 0.90625 -1.207031 0.90625 -1.84375 L 0.90625 -4.046875 L 0.078125 -4.046875 L 0.078125 -5.25 L 0.90625 -5.25 L 0.90625 -6.546875 L 2.46875 -6.546875 L 2.46875 -5.25 L 3.796875 -5.25 L 3.796875 -4.046875 L 2.46875 -4.046875 L 2.46875 -1.859375 C 2.46875 -1.640625 2.523438 -1.46875 2.640625 -1.34375 C 2.753906 -1.21875 2.914062 -1.15625 3.125 -1.15625 C 3.375 -1.15625 3.585938 -1.222656 3.765625 -1.359375 Z M 4.171875 -0.265625 "/></g></g></g><g fill="#000000" fill-opacity="1"><g transform="translate(104.453301, 159.802293)"><g><path d="M 5.96875 -2.65625 C 5.96875 -2.632812 5.957031 -2.5 5.9375 -2.25 L 1.890625 -2.25 C 1.960938 -1.914062 2.132812 -1.648438 2.40625 -1.453125 C 2.675781 -1.265625 3.015625 -1.171875 3.421875 -1.171875 C 3.703125 -1.171875 3.945312 -1.210938 4.15625 -1.296875 C 4.375 -1.378906 4.578125 -1.507812 4.765625 -1.6875 L 5.59375 -0.78125 C 5.082031 -0.207031 4.34375 0.078125 3.375 0.078125 C 2.769531 0.078125 2.234375 -0.0351562 1.765625 -0.265625 C 1.304688 -0.503906 0.945312 -0.832031 0.6875 -1.25 C 0.4375 -1.675781 0.3125 -2.15625 0.3125 -2.6875 C 0.3125 -3.207031 0.4375 -3.675781 0.6875 -4.09375 C 0.9375 -4.519531 1.28125 -4.847656 1.71875 -5.078125 C 2.15625 -5.316406 2.644531 -5.4375 3.1875 -5.4375 C 3.707031 -5.4375 4.179688 -5.320312 4.609375 -5.09375 C 5.035156 -4.875 5.367188 -4.550781 5.609375 -4.125 C 5.847656 -3.707031 5.96875 -3.21875 5.96875 -2.65625 Z M 3.1875 -4.265625 C 2.832031 -4.265625 2.535156 -4.164062 2.296875 -3.96875 C 2.054688 -3.769531 1.910156 -3.5 1.859375 -3.15625 L 4.5 -3.15625 C 4.445312 -3.488281 4.300781 -3.753906 4.0625 -3.953125 C 3.820312 -4.160156 3.53125 -4.265625 3.1875 -4.265625 Z M 3.1875 -4.265625 "/></g></g></g><g fill="#000000" fill-opacity="1"><g transform="translate(110.74244, 159.802293)"><g/></g></g><g fill="#000000" fill-opacity="1"><g transform="translate(44.256433, 173.258351)"><g><path d="M 2.5 -6.34375 L 0.046875 -6.34375 L 0.046875 -6.984375 L 5.6875 -6.984375 L 5.6875 -6.34375 L 3.234375 -6.34375 L 3.234375 0 L 2.5 0 Z M 2.5 -6.34375 "/></g></g></g><g fill="#000000" fill-opacity="1"><g transform="translate(49.975492, 173.258351)"><g><path d="M 3.65625 -5.28125 C 4.3125 -5.28125 4.832031 -5.085938 5.21875 -4.703125 C 5.613281 -4.328125 5.8125 -3.773438 5.8125 -3.046875 L 5.8125 0 L 5.109375 0 L 5.109375 -2.96875 C 5.109375 -3.507812 4.96875 -3.921875 4.6875 -4.203125 C 4.414062 -4.492188 4.03125 -4.640625 3.53125 -4.640625 C 2.96875 -4.640625 2.519531 -4.472656 2.1875 -4.140625 C 1.851562 -3.804688 1.6875 -3.34375 1.6875 -2.75 L 1.6875 0 L 0.984375 0 L 0.984375 -7.390625 L 1.6875 -7.390625 L 1.6875 -4.328125 C 1.882812 -4.628906 2.148438 -4.863281 2.484375 -5.03125 C 2.828125 -5.195312 3.21875 -5.28125 3.65625 -5.28125 Z M 3.65625 -5.28125 "/></g></g></g><g fill="#000000" fill-opacity="1"><g transform="translate(56.740719, 173.258351)"><g><path d="M 5.546875 -2.40625 L 1.171875 -2.40625 C 1.203125 -1.851562 1.40625 -1.410156 1.78125 -1.078125 C 2.164062 -0.742188 2.648438 -0.578125 3.234375 -0.578125 C 3.554688 -0.578125 3.851562 -0.632812 4.125 -0.75 C 4.394531 -0.863281 4.628906 -1.035156 4.828125 -1.265625 L 5.234375 -0.8125 C 5.003906 -0.53125 4.710938 -0.316406 4.359375 -0.171875 C 4.015625 -0.0234375 3.628906 0.046875 3.203125 0.046875 C 2.671875 0.046875 2.195312 -0.0664062 1.78125 -0.296875 C 1.363281 -0.523438 1.035156 -0.84375 0.796875 -1.25 C 0.566406 -1.65625 0.453125 -2.113281 0.453125 -2.625 C 0.453125 -3.132812 0.5625 -3.59375 0.78125 -4 C 1.007812 -4.40625 1.316406 -4.71875 1.703125 -4.9375 C 2.097656 -5.164062 2.535156 -5.28125 3.015625 -5.28125 C 3.503906 -5.28125 3.941406 -5.164062 4.328125 -4.9375 C 4.710938 -4.71875 5.015625 -4.40625 5.234375 -4 C 5.453125 -3.601562 5.5625 -3.144531 5.5625 -2.625 Z M 3.015625 -4.671875 C 2.515625 -4.671875 2.09375 -4.507812 1.75 -4.1875 C 1.40625 -3.863281 1.210938 -3.445312 1.171875 -2.9375 L 4.890625 -2.9375 C 4.835938 -3.445312 4.640625 -3.863281 4.296875 -4.1875 C 3.953125 -4.507812 3.523438 -4.671875 3.015625 -4.671875 Z M 3.015625 -4.671875 "/></g></g></g><g fill="#000000" fill-opacity="1"><g transform="translate(62.758683, 173.258351)"><g/></g></g><g fill="#000000" fill-opacity="1"><g transform="translate(65.369127, 173.258351)"><g><path d="M 5.765625 -7.390625 L 5.765625 0 L 5.09375 0 L 5.09375 -1.03125 C 4.882812 -0.6875 4.601562 -0.421875 4.25 -0.234375 C 3.90625 -0.046875 3.515625 0.046875 3.078125 0.046875 C 2.578125 0.046875 2.128906 -0.0625 1.734375 -0.28125 C 1.335938 -0.507812 1.023438 -0.828125 0.796875 -1.234375 C 0.566406 -1.640625 0.453125 -2.101562 0.453125 -2.625 C 0.453125 -3.144531 0.566406 -3.601562 0.796875 -4 C 1.023438 -4.40625 1.335938 -4.71875 1.734375 -4.9375 C 2.128906 -5.164062 2.578125 -5.28125 3.078125 -5.28125 C 3.492188 -5.28125 3.875 -5.191406 4.21875 -5.015625 C 4.5625 -4.835938 4.84375 -4.582031 5.0625 -4.25 L 5.0625 -7.390625 Z M 3.125 -0.578125 C 3.488281 -0.578125 3.816406 -0.660156 4.109375 -0.828125 C 4.410156 -1.003906 4.644531 -1.25 4.8125 -1.5625 C 4.988281 -1.875 5.078125 -2.226562 5.078125 -2.625 C 5.078125 -3.019531 4.988281 -3.375 4.8125 -3.6875 C 4.644531 -4 4.410156 -4.238281 4.109375 -4.40625 C 3.816406 -4.582031 3.488281 -4.671875 3.125 -4.671875 C 2.757812 -4.671875 2.425781 -4.582031 2.125 -4.40625 C 1.832031 -4.238281 1.597656 -4 1.421875 -3.6875 C 1.253906 -3.375 1.171875 -3.019531 1.171875 -2.625 C 1.171875 -2.226562 1.253906 -1.875 1.421875 -1.5625 C 1.597656 -1.25 1.832031 -1.003906 2.125 -0.828125 C 2.425781 -0.660156 2.757812 -0.578125 3.125 -0.578125 Z M 3.125 -0.578125 "/></g></g></g><g fill="#000000" fill-opacity="1"><g transform="translate(72.124396, 173.258351)"><g><path d="M 0.984375 -5.25 L 1.6875 -5.25 L 1.6875 0 L 0.984375 0 Z M 1.359375 -6.390625 C 1.210938 -6.390625 1.085938 -6.4375 0.984375 -6.53125 C 0.878906 -6.632812 0.828125 -6.753906 0.828125 -6.890625 C 0.828125 -7.023438 0.878906 -7.140625 0.984375 -7.234375 C 1.085938 -7.335938 1.210938 -7.390625 1.359375 -7.390625 C 1.503906 -7.390625 1.625 -7.34375 1.71875 -7.25 C 1.820312 -7.15625 1.875 -7.039062 1.875 -6.90625 C 1.875 -6.757812 1.820312 -6.632812 1.71875 -6.53125 C 1.625 -6.4375 1.503906 -6.390625 1.359375 -6.390625 Z M 1.359375 -6.390625 "/></g></g></g><g fill="#000000" fill-opacity="1"><g transform="translate(74.804581, 173.258351)"><g><path d="M 2.390625 0.046875 C 1.960938 0.046875 1.554688 -0.0078125 1.171875 -0.125 C 0.785156 -0.25 0.484375 -0.40625 0.265625 -0.59375 L 0.578125 -1.15625 C 0.796875 -0.976562 1.070312 -0.832031 1.40625 -0.71875 C 1.738281 -0.613281 2.082031 -0.5625 2.4375 -0.5625 C 2.914062 -0.5625 3.269531 -0.632812 3.5 -0.78125 C 3.726562 -0.9375 3.84375 -1.148438 3.84375 -1.421875 C 3.84375 -1.617188 3.78125 -1.769531 3.65625 -1.875 C 3.53125 -1.988281 3.367188 -2.070312 3.171875 -2.125 C 2.984375 -2.1875 2.726562 -2.242188 2.40625 -2.296875 C 1.988281 -2.367188 1.648438 -2.445312 1.390625 -2.53125 C 1.128906 -2.613281 0.90625 -2.753906 0.71875 -2.953125 C 0.539062 -3.160156 0.453125 -3.4375 0.453125 -3.78125 C 0.453125 -4.226562 0.632812 -4.585938 1 -4.859375 C 1.363281 -5.140625 1.867188 -5.28125 2.515625 -5.28125 C 2.859375 -5.28125 3.195312 -5.234375 3.53125 -5.140625 C 3.875 -5.054688 4.15625 -4.941406 4.375 -4.796875 L 4.0625 -4.234375 C 3.632812 -4.523438 3.117188 -4.671875 2.515625 -4.671875 C 2.066406 -4.671875 1.726562 -4.59375 1.5 -4.4375 C 1.269531 -4.28125 1.15625 -4.070312 1.15625 -3.8125 C 1.15625 -3.613281 1.21875 -3.453125 1.34375 -3.328125 C 1.476562 -3.210938 1.640625 -3.125 1.828125 -3.0625 C 2.023438 -3.007812 2.289062 -2.953125 2.625 -2.890625 C 3.050781 -2.804688 3.390625 -2.722656 3.640625 -2.640625 C 3.890625 -2.566406 4.101562 -2.429688 4.28125 -2.234375 C 4.46875 -2.046875 4.5625 -1.785156 4.5625 -1.453125 C 4.5625 -0.984375 4.367188 -0.613281 3.984375 -0.34375 C 3.597656 -0.0820312 3.066406 0.046875 2.390625 0.046875 Z M 2.390625 0.046875 "/></g></g></g><g fill="#000000" fill-opacity="1"><g transform="translate(79.67674, 173.258351)"><g><path d="M 3.15625 0.046875 C 2.632812 0.046875 2.171875 -0.0625 1.765625 -0.28125 C 1.359375 -0.507812 1.035156 -0.828125 0.796875 -1.234375 C 0.566406 -1.648438 0.453125 -2.113281 0.453125 -2.625 C 0.453125 -3.132812 0.566406 -3.59375 0.796875 -4 C 1.035156 -4.40625 1.359375 -4.71875 1.765625 -4.9375 C 2.171875 -5.164062 2.632812 -5.28125 3.15625 -5.28125 C 3.613281 -5.28125 4.019531 -5.191406 4.375 -5.015625 C 4.726562 -4.835938 5.007812 -4.582031 5.21875 -4.25 L 4.6875 -3.890625 C 4.507812 -4.148438 4.285156 -4.34375 4.015625 -4.46875 C 3.753906 -4.601562 3.46875 -4.671875 3.15625 -4.671875 C 2.78125 -4.671875 2.441406 -4.582031 2.140625 -4.40625 C 1.835938 -4.238281 1.597656 -4 1.421875 -3.6875 C 1.253906 -3.375 1.171875 -3.019531 1.171875 -2.625 C 1.171875 -2.21875 1.253906 -1.859375 1.421875 -1.546875 C 1.597656 -1.242188 1.835938 -1.003906 2.140625 -0.828125 C 2.441406 -0.660156 2.78125 -0.578125 3.15625 -0.578125 C 3.46875 -0.578125 3.753906 -0.640625 4.015625 -0.765625 C 4.285156 -0.890625 4.507812 -1.082031 4.6875 -1.34375 L 5.21875 -0.984375 C 5.007812 -0.648438 4.722656 -0.394531 4.359375 -0.21875 C 4.003906 -0.0390625 3.601562 0.046875 3.15625 0.046875 Z M 3.15625 0.046875 "/></g></g></g><g fill="#000000" fill-opacity="1"><g transform="translate(85.345997, 173.258351)"><g><path d="M 3.75 -0.3125 C 3.613281 -0.195312 3.445312 -0.109375 3.25 -0.046875 C 3.050781 0.015625 2.847656 0.046875 2.640625 0.046875 C 2.148438 0.046875 1.769531 -0.0820312 1.5 -0.34375 C 1.238281 -0.613281 1.109375 -0.988281 1.109375 -1.46875 L 1.109375 -4.640625 L 0.171875 -4.640625 L 0.171875 -5.25 L 1.109375 -5.25 L 1.109375 -6.390625 L 1.8125 -6.390625 L 1.8125 -5.25 L 3.40625 -5.25 L 3.40625 -4.640625 L 1.8125 -4.640625 L 1.8125 -1.515625 C 1.8125 -1.203125 1.890625 -0.960938 2.046875 -0.796875 C 2.203125 -0.640625 2.425781 -0.5625 2.71875 -0.5625 C 2.863281 -0.5625 3.003906 -0.582031 3.140625 -0.625 C 3.273438 -0.675781 3.394531 -0.742188 3.5 -0.828125 Z M 3.75 -0.3125 "/></g></g></g><g fill="#000000" fill-opacity="1"><g transform="translate(89.391182, 173.258351)"><g><path d="M 0.984375 -5.25 L 1.6875 -5.25 L 1.6875 0 L 0.984375 0 Z M 1.359375 -6.390625 C 1.210938 -6.390625 1.085938 -6.4375 0.984375 -6.53125 C 0.878906 -6.632812 0.828125 -6.753906 0.828125 -6.890625 C 0.828125 -7.023438 0.878906 -7.140625 0.984375 -7.234375 C 1.085938 -7.335938 1.210938 -7.390625 1.359375 -7.390625 C 1.503906 -7.390625 1.625 -7.34375 1.71875 -7.25 C 1.820312 -7.15625 1.875 -7.039062 1.875 -6.90625 C 1.875 -6.757812 1.820312 -6.632812 1.71875 -6.53125 C 1.625 -6.4375 1.503906 -6.390625 1.359375 -6.390625 Z M 1.359375 -6.390625 "/></g></g></g><g fill="#000000" fill-opacity="1"><g transform="translate(92.071368, 173.258351)"><g><path d="M 3.15625 0.046875 C 2.632812 0.046875 2.171875 -0.0625 1.765625 -0.28125 C 1.359375 -0.507812 1.035156 -0.828125 0.796875 -1.234375 C 0.566406 -1.648438 0.453125 -2.113281 0.453125 -2.625 C 0.453125 -3.132812 0.566406 -3.59375 0.796875 -4 C 1.035156 -4.40625 1.359375 -4.71875 1.765625 -4.9375 C 2.171875 -5.164062 2.632812 -5.28125 3.15625 -5.28125 C 3.613281 -5.28125 4.019531 -5.191406 4.375 -5.015625 C 4.726562 -4.835938 5.007812 -4.582031 5.21875 -4.25 L 4.6875 -3.890625 C 4.507812 -4.148438 4.285156 -4.34375 4.015625 -4.46875 C 3.753906 -4.601562 3.46875 -4.671875 3.15625 -4.671875 C 2.78125 -4.671875 2.441406 -4.582031 2.140625 -4.40625 C 1.835938 -4.238281 1.597656 -4 1.421875 -3.6875 C 1.253906 -3.375 1.171875 -3.019531 1.171875 -2.625 C 1.171875 -2.21875 1.253906 -1.859375 1.421875 -1.546875 C 1.597656 -1.242188 1.835938 -1.003906 2.140625 -0.828125 C 2.441406 -0.660156 2.78125 -0.578125 3.15625 -0.578125 C 3.46875 -0.578125 3.753906 -0.640625 4.015625 -0.765625 C 4.285156 -0.890625 4.507812 -1.082031 4.6875 -1.34375 L 5.21875 -0.984375 C 5.007812 -0.648438 4.722656 -0.394531 4.359375 -0.21875 C 4.003906 -0.0390625 3.601562 0.046875 3.15625 0.046875 Z M 3.15625 0.046875 "/></g></g></g><g fill="#000000" fill-opacity="1"><g transform="translate(97.740625, 173.258351)"><g><path d="M 3.75 -0.3125 C 3.613281 -0.195312 3.445312 -0.109375 3.25 -0.046875 C 3.050781 0.015625 2.847656 0.046875 2.640625 0.046875 C 2.148438 0.046875 1.769531 -0.0820312 1.5 -0.34375 C 1.238281 -0.613281 1.109375 -0.988281 1.109375 -1.46875 L 1.109375 -4.640625 L 0.171875 -4.640625 L 0.171875 -5.25 L 1.109375 -5.25 L 1.109375 -6.390625 L 1.8125 -6.390625 L 1.8125 -5.25 L 3.40625 -5.25 L 3.40625 -4.640625 L 1.8125 -4.640625 L 1.8125 -1.515625 C 1.8125 -1.203125 1.890625 -0.960938 2.046875 -0.796875 C 2.203125 -0.640625 2.425781 -0.5625 2.71875 -0.5625 C 2.863281 -0.5625 3.003906 -0.582031 3.140625 -0.625 C 3.273438 -0.675781 3.394531 -0.742188 3.5 -0.828125 Z M 3.75 -0.3125 "/></g></g></g><g fill="#000000" fill-opacity="1"><g transform="translate(101.785811, 173.258351)"><g/></g></g><g fill="#000000" fill-opacity="1"><g transform="translate(104.396255, 173.258351)"><g><path d="M 5.84375 -5.25 L 5.84375 -0.640625 C 5.84375 0.253906 5.625 0.914062 5.1875 1.34375 C 4.75 1.769531 4.09375 1.984375 3.21875 1.984375 C 2.738281 1.984375 2.28125 1.910156 1.84375 1.765625 C 1.40625 1.628906 1.050781 1.429688 0.78125 1.171875 L 1.140625 0.640625 C 1.390625 0.867188 1.695312 1.046875 2.0625 1.171875 C 2.425781 1.296875 2.804688 1.359375 3.203125 1.359375 C 3.867188 1.359375 4.359375 1.203125 4.671875 0.890625 C 4.984375 0.578125 5.140625 0.0976562 5.140625 -0.546875 L 5.140625 -1.21875 C 4.921875 -0.882812 4.628906 -0.628906 4.265625 -0.453125 C 3.910156 -0.285156 3.519531 -0.203125 3.09375 -0.203125 C 2.601562 -0.203125 2.15625 -0.304688 1.75 -0.515625 C 1.34375 -0.734375 1.023438 -1.035156 0.796875 -1.421875 C 0.566406 -1.816406 0.453125 -2.257812 0.453125 -2.75 C 0.453125 -3.238281 0.566406 -3.675781 0.796875 -4.0625 C 1.023438 -4.445312 1.335938 -4.742188 1.734375 -4.953125 C 2.140625 -5.171875 2.59375 -5.28125 3.09375 -5.28125 C 3.539062 -5.28125 3.941406 -5.191406 4.296875 -5.015625 C 4.648438 -4.835938 4.9375 -4.578125 5.15625 -4.234375 L 5.15625 -5.25 Z M 3.15625 -0.828125 C 3.539062 -0.828125 3.882812 -0.90625 4.1875 -1.0625 C 4.488281 -1.226562 4.722656 -1.457031 4.890625 -1.75 C 5.066406 -2.039062 5.15625 -2.375 5.15625 -2.75 C 5.15625 -3.125 5.066406 -3.453125 4.890625 -3.734375 C 4.722656 -4.023438 4.488281 -4.253906 4.1875 -4.421875 C 3.882812 -4.585938 3.539062 -4.671875 3.15625 -4.671875 C 2.78125 -4.671875 2.441406 -4.585938 2.140625 -4.421875 C 1.835938 -4.265625 1.597656 -4.039062 1.421875 -3.75 C 1.253906 -3.457031 1.171875 -3.125 1.171875 -2.75 C 1.171875 -2.375 1.253906 -2.039062 1.421875 -1.75 C 1.597656 -1.457031 1.835938 -1.226562 2.140625 -1.0625 C 2.441406 -0.90625 2.78125 -0.828125 3.15625 -0.828125 Z M 3.15625 -0.828125 "/></g></g></g><g fill="#000000" fill-opacity="1"><g transform="translate(111.231234, 173.258351)"><g><path d="M 2.828125 -5.28125 C 3.503906 -5.28125 4.023438 -5.109375 4.390625 -4.765625 C 4.753906 -4.421875 4.9375 -3.914062 4.9375 -3.25 L 4.9375 0 L 4.265625 0 L 4.265625 -0.8125 C 4.109375 -0.539062 3.875 -0.328125 3.5625 -0.171875 C 3.25 -0.0234375 2.882812 0.046875 2.46875 0.046875 C 1.875 0.046875 1.40625 -0.0859375 1.0625 -0.359375 C 0.71875 -0.640625 0.546875 -1.007812 0.546875 -1.46875 C 0.546875 -1.914062 0.707031 -2.273438 1.03125 -2.546875 C 1.351562 -2.816406 1.867188 -2.953125 2.578125 -2.953125 L 4.234375 -2.953125 L 4.234375 -3.28125 C 4.234375 -3.726562 4.109375 -4.070312 3.859375 -4.3125 C 3.609375 -4.550781 3.238281 -4.671875 2.75 -4.671875 C 2.414062 -4.671875 2.09375 -4.613281 1.78125 -4.5 C 1.476562 -4.394531 1.21875 -4.242188 1 -4.046875 L 0.6875 -4.578125 C 0.957031 -4.804688 1.273438 -4.976562 1.640625 -5.09375 C 2.015625 -5.21875 2.410156 -5.28125 2.828125 -5.28125 Z M 2.578125 -0.515625 C 2.972656 -0.515625 3.3125 -0.601562 3.59375 -0.78125 C 3.882812 -0.96875 4.097656 -1.234375 4.234375 -1.578125 L 4.234375 -2.4375 L 2.59375 -2.4375 C 1.695312 -2.4375 1.25 -2.125 1.25 -1.5 C 1.25 -1.1875 1.363281 -0.941406 1.59375 -0.765625 C 1.820312 -0.597656 2.148438 -0.515625 2.578125 -0.515625 Z M 2.578125 -0.515625 "/></g></g></g><g fill="#000000" fill-opacity="1"><g transform="translate(117.109716, 173.258351)"><g><path d="M 7.53125 -5.28125 C 8.1875 -5.28125 8.703125 -5.085938 9.078125 -4.703125 C 9.453125 -4.328125 9.640625 -3.773438 9.640625 -3.046875 L 9.640625 0 L 8.9375 0 L 8.9375 -2.96875 C 8.9375 -3.507812 8.800781 -3.921875 8.53125 -4.203125 C 8.269531 -4.492188 7.898438 -4.640625 7.421875 -4.640625 C 6.878906 -4.640625 6.453125 -4.472656 6.140625 -4.140625 C 5.828125 -3.804688 5.671875 -3.34375 5.671875 -2.75 L 5.671875 0 L 4.96875 0 L 4.96875 -2.96875 C 4.96875 -3.507812 4.832031 -3.921875 4.5625 -4.203125 C 4.300781 -4.492188 3.929688 -4.640625 3.453125 -4.640625 C 2.910156 -4.640625 2.476562 -4.472656 2.15625 -4.140625 C 1.84375 -3.804688 1.6875 -3.34375 1.6875 -2.75 L 1.6875 0 L 0.984375 0 L 0.984375 -5.25 L 1.671875 -5.25 L 1.671875 -4.28125 C 1.847656 -4.601562 2.101562 -4.847656 2.4375 -5.015625 C 2.769531 -5.191406 3.15625 -5.28125 3.59375 -5.28125 C 4.03125 -5.28125 4.410156 -5.1875 4.734375 -5 C 5.054688 -4.8125 5.296875 -4.535156 5.453125 -4.171875 C 5.640625 -4.515625 5.914062 -4.785156 6.28125 -4.984375 C 6.644531 -5.179688 7.0625 -5.28125 7.53125 -5.28125 Z M 7.53125 -5.28125 "/></g></g></g><g fill="#000000" fill-opacity="1"><g transform="translate(127.700934, 173.258351)"><g><path d="M 5.546875 -2.40625 L 1.171875 -2.40625 C 1.203125 -1.851562 1.40625 -1.410156 1.78125 -1.078125 C 2.164062 -0.742188 2.648438 -0.578125 3.234375 -0.578125 C 3.554688 -0.578125 3.851562 -0.632812 4.125 -0.75 C 4.394531 -0.863281 4.628906 -1.035156 4.828125 -1.265625 L 5.234375 -0.8125 C 5.003906 -0.53125 4.710938 -0.316406 4.359375 -0.171875 C 4.015625 -0.0234375 3.628906 0.046875 3.203125 0.046875 C 2.671875 0.046875 2.195312 -0.0664062 1.78125 -0.296875 C 1.363281 -0.523438 1.035156 -0.84375 0.796875 -1.25 C 0.566406 -1.65625 0.453125 -2.113281 0.453125 -2.625 C 0.453125 -3.132812 0.5625 -3.59375 0.78125 -4 C 1.007812 -4.40625 1.316406 -4.71875 1.703125 -4.9375 C 2.097656 -5.164062 2.535156 -5.28125 3.015625 -5.28125 C 3.503906 -5.28125 3.941406 -5.164062 4.328125 -4.9375 C 4.710938 -4.71875 5.015625 -4.40625 5.234375 -4 C 5.453125 -3.601562 5.5625 -3.144531 5.5625 -2.625 Z M 3.015625 -4.671875 C 2.515625 -4.671875 2.09375 -4.507812 1.75 -4.1875 C 1.40625 -3.863281 1.210938 -3.445312 1.171875 -2.9375 L 4.890625 -2.9375 C 4.835938 -3.445312 4.640625 -3.863281 4.296875 -4.1875 C 3.953125 -4.507812 3.523438 -4.671875 3.015625 -4.671875 Z M 3.015625 -4.671875 "/></g></g></g><path stroke-linecap="butt" transform="matrix(0.747559, 0, 0, 0.747559, 60.520472, 124.168815)" fill="none" stroke-linejoin="miter" d="M -0.00125888 0.500501 L 76.194675 0.500501 " stroke="#000000" stroke-width="1" stroke-opacity="1" stroke-miterlimit="4"/></g></g></g></svg>