<svg xmlns="http://www.w3.org/2000/svg" xmlns:xlink="http://www.w3.org/1999/xlink" width="238" zoomAndPan="magnify" viewBox="0 0 178.5 249.749992" height="333" preserveAspectRatio="xMidYMid meet" version="1.0"><defs><g/><clipPath id="4b5502e80d"><path d="M 0 0.222656 L 178 0.222656 L 178 249.277344 L 0 249.277344 Z M 0 0.222656 " clip-rule="nonzero"/></clipPath><clipPath id="a877727b9c"><path d="M 0 0.222656 L 178 0.222656 L 178 249 L 0 249 Z M 0 0.222656 " clip-rule="nonzero"/></clipPath><clipPath id="3c3da36a37"><path d="M 18.6875 0.222656 L 159.3125 0.222656 C 169.632812 0.222656 178 8.589844 178 18.914062 L 178 230.171875 C 178 240.492188 169.632812 248.859375 159.3125 248.859375 L 18.6875 248.859375 C 8.367188 248.859375 0 240.492188 0 230.171875 L 0 18.914062 C 0 8.589844 8.367188 0.222656 18.6875 0.222656 Z M 18.6875 0.222656 " clip-rule="nonzero"/></clipPath><clipPath id="bc81da0b70"><path d="M 0 0.222656 L 178 0.222656 L 178 248.859375 L 0 248.859375 Z M 0 0.222656 " clip-rule="nonzero"/></clipPath><clipPath id="7aae82cc7c"><path d="M 18.6875 0.222656 L 159.3125 0.222656 C 169.632812 0.222656 178 8.589844 178 18.914062 L 178 230.171875 C 178 240.492188 169.632812 248.859375 159.3125 248.859375 L 18.6875 248.859375 C 8.367188 248.859375 0 240.492188 0 230.171875 L 0 18.914062 C 0 8.589844 8.367188 0.222656 18.6875 0.222656 Z M 18.6875 0.222656 " clip-rule="nonzero"/></clipPath><linearGradient x1="0" gradientTransform="matrix(0.695318, 0, 0, 0.695318, 0, 0.221071)" y1="178.79401" x2="256" gradientUnits="userSpaceOnUse" y2="178.79401" id="31540185e0"><stop stop-opacity="1" stop-color="rgb(100%, 87.059021%, 34.899902%)" offset="0"/><stop stop-opacity="1" stop-color="rgb(100%, 86.941528%, 34.881592%)" offset="0.0078125"/><stop stop-opacity="1" stop-color="rgb(100%, 86.705017%, 34.843445%)" offset="0.015625"/><stop stop-opacity="1" stop-color="rgb(100%, 86.468506%, 34.806824%)" offset="0.0234375"/><stop stop-opacity="1" stop-color="rgb(100%, 86.233521%, 34.770203%)" offset="0.03125"/><stop stop-opacity="1" stop-color="rgb(100%, 85.997009%, 34.733582%)" offset="0.0390625"/><stop stop-opacity="1" stop-color="rgb(100%, 85.760498%, 34.69696%)" offset="0.046875"/><stop stop-opacity="1" stop-color="rgb(100%, 85.525513%, 34.660339%)" offset="0.0546875"/><stop stop-opacity="1" stop-color="rgb(100%, 85.289001%, 34.623718%)" offset="0.0625"/><stop stop-opacity="1" stop-color="rgb(100%, 85.054016%, 34.587097%)" offset="0.0703125"/><stop stop-opacity="1" stop-color="rgb(100%, 84.817505%, 34.550476%)" offset="0.078125"/><stop stop-opacity="1" stop-color="rgb(100%, 84.580994%, 34.513855%)" offset="0.0859375"/><stop stop-opacity="1" stop-color="rgb(100%, 84.346008%, 34.477234%)" offset="0.09375"/><stop stop-opacity="1" stop-color="rgb(100%, 84.109497%, 34.440613%)" offset="0.101562"/><stop stop-opacity="1" stop-color="rgb(100%, 83.872986%, 34.403992%)" offset="0.109375"/><stop stop-opacity="1" stop-color="rgb(100%, 83.638%, 34.367371%)" offset="0.117188"/><stop stop-opacity="1" stop-color="rgb(100%, 83.401489%, 34.33075%)" offset="0.125"/><stop stop-opacity="1" stop-color="rgb(100%, 83.166504%, 34.292603%)" offset="0.132812"/><stop stop-opacity="1" stop-color="rgb(100%, 82.929993%, 34.255981%)" offset="0.140625"/><stop stop-opacity="1" stop-color="rgb(100%, 82.693481%, 34.21936%)" offset="0.148438"/><stop stop-opacity="1" stop-color="rgb(100%, 82.458496%, 34.182739%)" offset="0.15625"/><stop stop-opacity="1" stop-color="rgb(100%, 82.221985%, 34.146118%)" offset="0.164062"/><stop stop-opacity="1" stop-color="rgb(100%, 81.985474%, 34.109497%)" offset="0.171875"/><stop stop-opacity="1" stop-color="rgb(100%, 81.750488%, 34.072876%)" offset="0.179688"/><stop stop-opacity="1" stop-color="rgb(100%, 81.513977%, 34.036255%)" offset="0.1875"/><stop stop-opacity="1" stop-color="rgb(100%, 81.278992%, 33.999634%)" offset="0.195312"/><stop stop-opacity="1" stop-color="rgb(100%, 81.04248%, 33.963013%)" offset="0.203125"/><stop stop-opacity="1" stop-color="rgb(100%, 80.805969%, 33.926392%)" offset="0.210938"/><stop stop-opacity="1" stop-color="rgb(100%, 80.570984%, 33.889771%)" offset="0.21875"/><stop stop-opacity="1" stop-color="rgb(100%, 80.334473%, 33.853149%)" offset="0.226562"/><stop stop-opacity="1" stop-color="rgb(100%, 80.097961%, 33.816528%)" offset="0.234375"/><stop stop-opacity="1" stop-color="rgb(100%, 79.862976%, 33.779907%)" offset="0.242188"/><stop stop-opacity="1" stop-color="rgb(100%, 79.626465%, 33.743286%)" offset="0.25"/><stop stop-opacity="1" stop-color="rgb(100%, 79.391479%, 33.705139%)" offset="0.257812"/><stop stop-opacity="1" stop-color="rgb(100%, 79.154968%, 33.668518%)" offset="0.265625"/><stop stop-opacity="1" stop-color="rgb(100%, 78.918457%, 33.631897%)" offset="0.273438"/><stop stop-opacity="1" stop-color="rgb(100%, 78.683472%, 33.595276%)" offset="0.28125"/><stop stop-opacity="1" stop-color="rgb(100%, 78.44696%, 33.558655%)" offset="0.289062"/><stop stop-opacity="1" stop-color="rgb(100%, 78.210449%, 33.522034%)" offset="0.296875"/><stop stop-opacity="1" stop-color="rgb(100%, 77.975464%, 33.485413%)" offset="0.304688"/><stop stop-opacity="1" stop-color="rgb(100%, 77.738953%, 33.448792%)" offset="0.3125"/><stop stop-opacity="1" stop-color="rgb(100%, 77.503967%, 33.41217%)" offset="0.320312"/><stop stop-opacity="1" stop-color="rgb(100%, 77.267456%, 33.375549%)" offset="0.328125"/><stop stop-opacity="1" stop-color="rgb(100%, 77.030945%, 33.338928%)" offset="0.335938"/><stop stop-opacity="1" stop-color="rgb(100%, 76.795959%, 33.302307%)" offset="0.34375"/><stop stop-opacity="1" stop-color="rgb(100%, 76.559448%, 33.265686%)" offset="0.351562"/><stop stop-opacity="1" stop-color="rgb(100%, 76.322937%, 33.229065%)" offset="0.359375"/><stop stop-opacity="1" stop-color="rgb(100%, 76.087952%, 33.192444%)" offset="0.367188"/><stop stop-opacity="1" stop-color="rgb(100%, 75.85144%, 33.154297%)" offset="0.375"/><stop stop-opacity="1" stop-color="rgb(100%, 75.616455%, 33.117676%)" offset="0.382812"/><stop stop-opacity="1" stop-color="rgb(100%, 75.379944%, 33.081055%)" offset="0.390625"/><stop stop-opacity="1" stop-color="rgb(100%, 75.143433%, 33.044434%)" offset="0.398438"/><stop stop-opacity="1" stop-color="rgb(100%, 74.908447%, 33.007812%)" offset="0.40625"/><stop stop-opacity="1" stop-color="rgb(100%, 74.671936%, 32.971191%)" offset="0.414062"/><stop stop-opacity="1" stop-color="rgb(100%, 74.435425%, 32.93457%)" offset="0.421875"/><stop stop-opacity="1" stop-color="rgb(100%, 74.200439%, 32.897949%)" offset="0.429688"/><stop stop-opacity="1" stop-color="rgb(100%, 73.963928%, 32.861328%)" offset="0.4375"/><stop stop-opacity="1" stop-color="rgb(100%, 73.728943%, 32.824707%)" offset="0.445312"/><stop stop-opacity="1" stop-color="rgb(100%, 73.492432%, 32.788086%)" offset="0.453125"/><stop stop-opacity="1" stop-color="rgb(100%, 73.25592%, 32.751465%)" offset="0.460938"/><stop stop-opacity="1" stop-color="rgb(100%, 73.020935%, 32.714844%)" offset="0.46875"/><stop stop-opacity="1" stop-color="rgb(100%, 72.784424%, 32.678223%)" offset="0.476562"/><stop stop-opacity="1" stop-color="rgb(100%, 72.547913%, 32.641602%)" offset="0.484375"/><stop stop-opacity="1" stop-color="rgb(100%, 72.312927%, 32.60498%)" offset="0.492188"/><stop stop-opacity="1" stop-color="rgb(100%, 72.076416%, 32.566833%)" offset="0.5"/><stop stop-opacity="1" stop-color="rgb(100%, 71.841431%, 32.530212%)" offset="0.507812"/><stop stop-opacity="1" stop-color="rgb(100%, 71.604919%, 32.493591%)" offset="0.515625"/><stop stop-opacity="1" stop-color="rgb(100%, 71.368408%, 32.45697%)" offset="0.523438"/><stop stop-opacity="1" stop-color="rgb(100%, 71.133423%, 32.420349%)" offset="0.53125"/><stop stop-opacity="1" stop-color="rgb(100%, 70.896912%, 32.383728%)" offset="0.539062"/><stop stop-opacity="1" stop-color="rgb(100%, 70.6604%, 32.347107%)" offset="0.546875"/><stop stop-opacity="1" stop-color="rgb(100%, 70.425415%, 32.310486%)" offset="0.554688"/><stop stop-opacity="1" stop-color="rgb(100%, 70.188904%, 32.273865%)" offset="0.5625"/><stop stop-opacity="1" stop-color="rgb(100%, 69.953918%, 32.237244%)" offset="0.570312"/><stop stop-opacity="1" stop-color="rgb(100%, 69.717407%, 32.200623%)" offset="0.578125"/><stop stop-opacity="1" stop-color="rgb(100%, 69.480896%, 32.164001%)" offset="0.585938"/><stop stop-opacity="1" stop-color="rgb(100%, 69.245911%, 32.12738%)" offset="0.59375"/><stop stop-opacity="1" stop-color="rgb(100%, 69.009399%, 32.090759%)" offset="0.601562"/><stop stop-opacity="1" stop-color="rgb(100%, 68.772888%, 32.054138%)" offset="0.609375"/><stop stop-opacity="1" stop-color="rgb(100%, 68.537903%, 32.017517%)" offset="0.617188"/><stop stop-opacity="1" stop-color="rgb(100%, 68.301392%, 31.97937%)" offset="0.625"/><stop stop-opacity="1" stop-color="rgb(100%, 68.066406%, 31.942749%)" offset="0.632812"/><stop stop-opacity="1" stop-color="rgb(100%, 67.829895%, 31.906128%)" offset="0.640625"/><stop stop-opacity="1" stop-color="rgb(100%, 67.593384%, 31.869507%)" offset="0.648438"/><stop stop-opacity="1" stop-color="rgb(100%, 67.358398%, 31.832886%)" offset="0.65625"/><stop stop-opacity="1" stop-color="rgb(100%, 67.121887%, 31.796265%)" offset="0.664062"/><stop stop-opacity="1" stop-color="rgb(100%, 66.885376%, 31.759644%)" offset="0.671875"/><stop stop-opacity="1" stop-color="rgb(100%, 66.650391%, 31.723022%)" offset="0.679688"/><stop stop-opacity="1" stop-color="rgb(100%, 66.413879%, 31.686401%)" offset="0.6875"/><stop stop-opacity="1" stop-color="rgb(100%, 66.178894%, 31.64978%)" offset="0.695312"/><stop stop-opacity="1" stop-color="rgb(100%, 65.942383%, 31.613159%)" offset="0.703125"/><stop stop-opacity="1" stop-color="rgb(100%, 65.705872%, 31.576538%)" offset="0.710938"/><stop stop-opacity="1" stop-color="rgb(100%, 65.470886%, 31.539917%)" offset="0.71875"/><stop stop-opacity="1" stop-color="rgb(100%, 65.234375%, 31.503296%)" offset="0.726562"/><stop stop-opacity="1" stop-color="rgb(100%, 64.997864%, 31.466675%)" offset="0.734375"/><stop stop-opacity="1" stop-color="rgb(100%, 64.762878%, 31.428528%)" offset="0.742188"/><stop stop-opacity="1" stop-color="rgb(100%, 64.526367%, 31.391907%)" offset="0.75"/><stop stop-opacity="1" stop-color="rgb(100%, 64.291382%, 31.355286%)" offset="0.757812"/><stop stop-opacity="1" stop-color="rgb(100%, 64.054871%, 31.318665%)" offset="0.765625"/><stop stop-opacity="1" stop-color="rgb(100%, 63.818359%, 31.282043%)" offset="0.773438"/><stop stop-opacity="1" stop-color="rgb(100%, 63.583374%, 31.245422%)" offset="0.78125"/><stop stop-opacity="1" stop-color="rgb(100%, 63.346863%, 31.208801%)" offset="0.789062"/><stop stop-opacity="1" stop-color="rgb(100%, 63.110352%, 31.17218%)" offset="0.796875"/><stop stop-opacity="1" stop-color="rgb(100%, 62.875366%, 31.135559%)" offset="0.804688"/><stop stop-opacity="1" stop-color="rgb(100%, 62.638855%, 31.098938%)" offset="0.8125"/><stop stop-opacity="1" stop-color="rgb(100%, 62.40387%, 31.062317%)" offset="0.820312"/><stop stop-opacity="1" stop-color="rgb(100%, 62.167358%, 31.025696%)" offset="0.828125"/><stop stop-opacity="1" stop-color="rgb(100%, 61.930847%, 30.989075%)" offset="0.835938"/><stop stop-opacity="1" stop-color="rgb(100%, 61.695862%, 30.952454%)" offset="0.84375"/><stop stop-opacity="1" stop-color="rgb(100%, 61.459351%, 30.915833%)" offset="0.851562"/><stop stop-opacity="1" stop-color="rgb(100%, 61.224365%, 30.879211%)" offset="0.859375"/><stop stop-opacity="1" stop-color="rgb(100%, 60.987854%, 30.841064%)" offset="0.867188"/><stop stop-opacity="1" stop-color="rgb(100%, 60.751343%, 30.804443%)" offset="0.875"/><stop stop-opacity="1" stop-color="rgb(100%, 60.516357%, 30.767822%)" offset="0.882812"/><stop stop-opacity="1" stop-color="rgb(100%, 60.279846%, 30.731201%)" offset="0.890625"/><stop stop-opacity="1" stop-color="rgb(100%, 60.043335%, 30.69458%)" offset="0.898438"/><stop stop-opacity="1" stop-color="rgb(100%, 59.80835%, 30.657959%)" offset="0.90625"/><stop stop-opacity="1" stop-color="rgb(100%, 59.571838%, 30.621338%)" offset="0.914062"/><stop stop-opacity="1" stop-color="rgb(100%, 59.336853%, 30.584717%)" offset="0.921875"/><stop stop-opacity="1" stop-color="rgb(100%, 59.100342%, 30.548096%)" offset="0.929688"/><stop stop-opacity="1" stop-color="rgb(100%, 58.863831%, 30.511475%)" offset="0.9375"/><stop stop-opacity="1" stop-color="rgb(100%, 58.628845%, 30.474854%)" offset="0.945312"/><stop stop-opacity="1" stop-color="rgb(100%, 58.392334%, 30.438232%)" offset="0.953125"/><stop stop-opacity="1" stop-color="rgb(100%, 58.155823%, 30.401611%)" offset="0.960938"/><stop stop-opacity="1" stop-color="rgb(100%, 57.920837%, 30.36499%)" offset="0.96875"/><stop stop-opacity="1" stop-color="rgb(100%, 57.684326%, 30.328369%)" offset="0.976562"/><stop stop-opacity="1" stop-color="rgb(100%, 57.449341%, 30.291748%)" offset="0.984375"/><stop stop-opacity="1" stop-color="rgb(100%, 57.21283%, 30.253601%)" offset="0.992188"/><stop stop-opacity="1" stop-color="rgb(100%, 56.976318%, 30.21698%)" offset="1"/></linearGradient><clipPath id="8808517e65"><rect x="0" width="178" y="0" height="249"/></clipPath><clipPath id="2a21a126e1"><rect x="0" width="178" y="0" height="250"/></clipPath></defs><g clip-path="url(#4b5502e80d)"><g transform="matrix(1, 0, 0, 1, 0, -0.000000000000018291)"><g clip-path="url(#2a21a126e1)"><g clip-path="url(#a877727b9c)"><g clip-path="url(#3c3da36a37)"><g transform="matrix(1, 0, 0, 1, 0, -0.000000000000018291)"><g clip-path="url(#8808517e65)"><g clip-path="url(#bc81da0b70)"><g clip-path="url(#7aae82cc7c)"><path fill="url(#31540185e0)" d="M 0 0.222656 L 0 248.859375 L 178 248.859375 L 178 0.222656 Z M 0 0.222656 " fill-rule="nonzero"/></g></g></g></g></g></g><g fill="#000000" fill-opacity="1"><g transform="translate(112.057137, 88.906923)"><g><path d="M -7.171875 0 L -7.171875 4.1875 L -5.109375 0.734375 L -4.390625 0.734375 L -2.34375 4.09375 L -2.34375 0 L -0.828125 0 L -0.828125 6.984375 L -2.15625 6.984375 L -4.78125 2.640625 L -7.34375 6.984375 L -8.671875 6.984375 L -8.6875 0 Z M -7.171875 0 "/></g></g></g><g fill="#000000" fill-opacity="1"><g transform="translate(102.541973, 88.906923)"><g><path d="M -2.875 5.4375 C -3.707031 5.4375 -4.347656 5.238281 -4.796875 4.84375 C -5.242188 4.445312 -5.46875 3.851562 -5.46875 3.0625 L -5.46875 0 L -4 0 L -4 0.671875 C -3.707031 0.171875 -3.164062 -0.078125 -2.375 -0.078125 C -1.957031 -0.078125 -1.597656 -0.0078125 -1.296875 0.125 C -0.992188 0.269531 -0.765625 0.460938 -0.609375 0.703125 C -0.453125 0.953125 -0.375 1.234375 -0.375 1.546875 C -0.375 2.046875 -0.5625 2.4375 -0.9375 2.71875 C -1.3125 3.007812 -1.890625 3.15625 -2.671875 3.15625 L -3.90625 3.15625 C -3.90625 3.488281 -3.800781 3.742188 -3.59375 3.921875 C -3.394531 4.109375 -3.085938 4.203125 -2.671875 4.203125 C -2.390625 4.203125 -2.109375 4.15625 -1.828125 4.0625 C -1.554688 3.976562 -1.320312 3.859375 -1.125 3.703125 L -0.5625 4.796875 C -0.851562 5.003906 -1.203125 5.160156 -1.609375 5.265625 C -2.023438 5.378906 -2.445312 5.4375 -2.875 5.4375 Z M -2.765625 0.96875 C -3.023438 0.96875 -3.257812 1.023438 -3.46875 1.140625 C -3.675781 1.265625 -3.820312 1.445312 -3.90625 1.6875 L -3.90625 2.25 L -2.84375 2.25 C -2.207031 2.25 -1.890625 2.035156 -1.890625 1.609375 C -1.890625 1.410156 -1.96875 1.253906 -2.125 1.140625 C -2.28125 1.023438 -2.492188 0.96875 -2.765625 0.96875 Z M -2.765625 0.96875 "/></g></g></g><g fill="#000000" fill-opacity="1"><g transform="translate(96.394484, 88.906923)"><g><path d="M -3.984375 5.4375 C -4.640625 5.4375 -5.171875 5.238281 -5.578125 4.84375 C -5.992188 4.445312 -6.203125 3.859375 -6.203125 3.078125 L -6.203125 0 L -4.640625 0 L -4.640625 2.828125 C -4.640625 3.253906 -4.546875 3.570312 -4.359375 3.78125 C -4.179688 3.988281 -3.914062 4.09375 -3.5625 4.09375 C -3.164062 4.09375 -2.847656 3.972656 -2.609375 3.734375 C -2.378906 3.492188 -2.265625 3.132812 -2.265625 2.65625 L -2.265625 0 L -0.71875 0 L -0.71875 5.359375 L -2.203125 5.359375 L -2.203125 4.734375 C -2.410156 4.960938 -2.664062 5.132812 -2.96875 5.25 C -3.269531 5.375 -3.609375 5.4375 -3.984375 5.4375 Z M -3.984375 5.4375 "/></g></g></g><g fill="#000000" fill-opacity="1"><g transform="translate(89.449897, 88.906923)"><g><path d="M -6.1875 7.390625 L -6.1875 0 L -4.6875 0 L -4.6875 0.625 C -4.300781 0.15625 -3.742188 -0.078125 -3.015625 -0.078125 C -2.515625 -0.078125 -2.054688 0.03125 -1.640625 0.25 C -1.234375 0.476562 -0.914062 0.800781 -0.6875 1.21875 C -0.457031 1.644531 -0.34375 2.132812 -0.34375 2.6875 C -0.34375 3.238281 -0.457031 3.722656 -0.6875 4.140625 C -0.914062 4.554688 -1.234375 4.875 -1.640625 5.09375 C -2.054688 5.320312 -2.515625 5.4375 -3.015625 5.4375 C -3.703125 5.4375 -4.238281 5.222656 -4.625 4.796875 L -4.625 7.390625 Z M -3.296875 1.203125 C -3.679688 1.203125 -4.003906 1.332031 -4.265625 1.59375 C -4.523438 1.863281 -4.65625 2.226562 -4.65625 2.6875 C -4.65625 3.132812 -4.523438 3.492188 -4.265625 3.765625 C -4.003906 4.035156 -3.679688 4.171875 -3.296875 4.171875 C -2.890625 4.171875 -2.554688 4.035156 -2.296875 3.765625 C -2.035156 3.492188 -1.90625 3.132812 -1.90625 2.6875 C -1.90625 2.226562 -2.035156 1.863281 -2.296875 1.59375 C -2.554688 1.332031 -2.890625 1.203125 -3.296875 1.203125 Z M -3.296875 1.203125 "/></g></g></g><g fill="#000000" fill-opacity="1"><g transform="translate(82.555146, 88.906923)"><g><path d="M -2.875 5.4375 C -3.707031 5.4375 -4.347656 5.238281 -4.796875 4.84375 C -5.242188 4.445312 -5.46875 3.851562 -5.46875 3.0625 L -5.46875 0 L -4 0 L -4 0.671875 C -3.707031 0.171875 -3.164062 -0.078125 -2.375 -0.078125 C -1.957031 -0.078125 -1.597656 -0.0078125 -1.296875 0.125 C -0.992188 0.269531 -0.765625 0.460938 -0.609375 0.703125 C -0.453125 0.953125 -0.375 1.234375 -0.375 1.546875 C -0.375 2.046875 -0.5625 2.4375 -0.9375 2.71875 C -1.3125 3.007812 -1.890625 3.15625 -2.671875 3.15625 L -3.90625 3.15625 C -3.90625 3.488281 -3.800781 3.742188 -3.59375 3.921875 C -3.394531 4.109375 -3.085938 4.203125 -2.671875 4.203125 C -2.390625 4.203125 -2.109375 4.15625 -1.828125 4.0625 C -1.554688 3.976562 -1.320312 3.859375 -1.125 3.703125 L -0.5625 4.796875 C -0.851562 5.003906 -1.203125 5.160156 -1.609375 5.265625 C -2.023438 5.378906 -2.445312 5.4375 -2.875 5.4375 Z M -2.765625 0.96875 C -3.023438 0.96875 -3.257812 1.023438 -3.46875 1.140625 C -3.675781 1.265625 -3.820312 1.445312 -3.90625 1.6875 L -3.90625 2.25 L -2.84375 2.25 C -2.207031 2.25 -1.890625 2.035156 -1.890625 1.609375 C -1.890625 1.410156 -1.96875 1.253906 -2.125 1.140625 C -2.28125 1.023438 -2.492188 0.96875 -2.765625 0.96875 Z M -2.765625 0.96875 "/></g></g></g><g fill="#000000" fill-opacity="1"><g transform="translate(76.407658, 88.906923)"><g><path d="M -4.171875 0.265625 C -4.023438 0.148438 -3.835938 0.0625 -3.609375 0 C -3.390625 -0.0507812 -3.15625 -0.078125 -2.90625 -0.078125 C -2.269531 -0.078125 -1.773438 0.0820312 -1.421875 0.40625 C -1.078125 0.726562 -0.90625 1.207031 -0.90625 1.84375 L -0.90625 4.046875 L -0.078125 4.046875 L -0.078125 5.25 L -0.90625 5.25 L -0.90625 6.546875 L -2.46875 6.546875 L -2.46875 5.25 L -3.796875 5.25 L -3.796875 4.046875 L -2.46875 4.046875 L -2.46875 1.859375 C -2.46875 1.640625 -2.523438 1.46875 -2.640625 1.34375 C -2.753906 1.21875 -2.914062 1.15625 -3.125 1.15625 C -3.375 1.15625 -3.585938 1.222656 -3.765625 1.359375 Z M -4.171875 0.265625 "/></g></g></g><g fill="#000000" fill-opacity="1"><g transform="translate(72.242929, 88.906923)"><g><path d="M -5.96875 2.65625 C -5.96875 2.632812 -5.957031 2.5 -5.9375 2.25 L -1.890625 2.25 C -1.960938 1.914062 -2.132812 1.648438 -2.40625 1.453125 C -2.675781 1.265625 -3.015625 1.171875 -3.421875 1.171875 C -3.703125 1.171875 -3.945312 1.210938 -4.15625 1.296875 C -4.375 1.378906 -4.578125 1.507812 -4.765625 1.6875 L -5.59375 0.78125 C -5.082031 0.207031 -4.34375 -0.078125 -3.375 -0.078125 C -2.769531 -0.078125 -2.234375 0.0351562 -1.765625 0.265625 C -1.304688 0.503906 -0.945312 0.832031 -0.6875 1.25 C -0.4375 1.675781 -0.3125 2.15625 -0.3125 2.6875 C -0.3125 3.207031 -0.4375 3.675781 -0.6875 4.09375 C -0.9375 4.519531 -1.28125 4.847656 -1.71875 5.078125 C -2.15625 5.316406 -2.644531 5.4375 -3.1875 5.4375 C -3.707031 5.4375 -4.179688 5.320312 -4.609375 5.09375 C -5.035156 4.875 -5.367188 4.550781 -5.609375 4.125 C -5.847656 3.707031 -5.96875 3.21875 -5.96875 2.65625 Z M -3.1875 4.265625 C -2.832031 4.265625 -2.535156 4.164062 -2.296875 3.96875 C -2.054688 3.769531 -1.910156 3.5 -1.859375 3.15625 L -4.5 3.15625 C -4.445312 3.488281 -4.300781 3.753906 -4.0625 3.953125 C -3.820312 4.160156 -3.53125 4.265625 -3.1875 4.265625 Z M -3.1875 4.265625 "/></g></g></g><g fill="#000000" fill-opacity="1"><g transform="translate(133.736339, 75.450866)"><g><path d="M -2.5 6.34375 L -0.046875 6.34375 L -0.046875 6.984375 L -5.6875 6.984375 L -5.6875 6.34375 L -3.234375 6.34375 L -3.234375 0 L -2.5 0 Z M -2.5 6.34375 "/></g></g></g><g fill="#000000" fill-opacity="1"><g transform="translate(128.01728, 75.450866)"><g><path d="M -3.65625 5.28125 C -4.3125 5.28125 -4.832031 5.085938 -5.21875 4.703125 C -5.613281 4.328125 -5.8125 3.773438 -5.8125 3.046875 L -5.8125 0 L -5.109375 0 L -5.109375 2.96875 C -5.109375 3.507812 -4.96875 3.921875 -4.6875 4.203125 C -4.414062 4.492188 -4.03125 4.640625 -3.53125 4.640625 C -2.96875 4.640625 -2.519531 4.472656 -2.1875 4.140625 C -1.851562 3.804688 -1.6875 3.34375 -1.6875 2.75 L -1.6875 0 L -0.984375 0 L -0.984375 7.390625 L -1.6875 7.390625 L -1.6875 4.328125 C -1.882812 4.628906 -2.148438 4.863281 -2.484375 5.03125 C -2.828125 5.195312 -3.21875 5.28125 -3.65625 5.28125 Z M -3.65625 5.28125 "/></g></g></g><g fill="#000000" fill-opacity="1"><g transform="translate(121.252054, 75.450866)"><g><path d="M -5.546875 2.40625 L -1.171875 2.40625 C -1.203125 1.851562 -1.40625 1.410156 -1.78125 1.078125 C -2.164062 0.742188 -2.648438 0.578125 -3.234375 0.578125 C -3.554688 0.578125 -3.851562 0.632812 -4.125 0.75 C -4.394531 0.863281 -4.628906 1.035156 -4.828125 1.265625 L -5.234375 0.8125 C -5.003906 0.53125 -4.710938 0.316406 -4.359375 0.171875 C -4.015625 0.0234375 -3.628906 -0.046875 -3.203125 -0.046875 C -2.671875 -0.046875 -2.195312 0.0664062 -1.78125 0.296875 C -1.363281 0.523438 -1.035156 0.84375 -0.796875 1.25 C -0.566406 1.65625 -0.453125 2.113281 -0.453125 2.625 C -0.453125 3.132812 -0.5625 3.59375 -0.78125 4 C -1.007812 4.40625 -1.316406 4.71875 -1.703125 4.9375 C -2.097656 5.164062 -2.535156 5.28125 -3.015625 5.28125 C -3.503906 5.28125 -3.941406 5.164062 -4.328125 4.9375 C -4.710938 4.71875 -5.015625 4.40625 -5.234375 4 C -5.453125 3.601562 -5.5625 3.144531 -5.5625 2.625 Z M -3.015625 4.671875 C -2.515625 4.671875 -2.09375 4.507812 -1.75 4.1875 C -1.40625 3.863281 -1.210938 3.445312 -1.171875 2.9375 L -4.890625 2.9375 C -4.835938 3.445312 -4.640625 3.863281 -4.296875 4.1875 C -3.953125 4.507812 -3.523438 4.671875 -3.015625 4.671875 Z M -3.015625 4.671875 "/></g></g></g><g fill="#000000" fill-opacity="1"><g transform="translate(115.23409, 75.450866)"><g/></g></g><g fill="#000000" fill-opacity="1"><g transform="translate(112.623646, 75.450866)"><g><path d="M -5.765625 7.390625 L -5.765625 0 L -5.09375 0 L -5.09375 1.03125 C -4.882812 0.6875 -4.601562 0.421875 -4.25 0.234375 C -3.90625 0.046875 -3.515625 -0.046875 -3.078125 -0.046875 C -2.578125 -0.046875 -2.128906 0.0625 -1.734375 0.28125 C -1.335938 0.507812 -1.023438 0.828125 -0.796875 1.234375 C -0.566406 1.640625 -0.453125 2.101562 -0.453125 2.625 C -0.453125 3.144531 -0.566406 3.601562 -0.796875 4 C -1.023438 4.40625 -1.335938 4.71875 -1.734375 4.9375 C -2.128906 5.164062 -2.578125 5.28125 -3.078125 5.28125 C -3.492188 5.28125 -3.875 5.191406 -4.21875 5.015625 C -4.5625 4.835938 -4.84375 4.582031 -5.0625 4.25 L -5.0625 7.390625 Z M -3.125 0.578125 C -3.488281 0.578125 -3.816406 0.660156 -4.109375 0.828125 C -4.410156 1.003906 -4.644531 1.25 -4.8125 1.5625 C -4.988281 1.875 -5.078125 2.226562 -5.078125 2.625 C -5.078125 3.019531 -4.988281 3.375 -4.8125 3.6875 C -4.644531 4 -4.410156 4.238281 -4.109375 4.40625 C -3.816406 4.582031 -3.488281 4.671875 -3.125 4.671875 C -2.757812 4.671875 -2.425781 4.582031 -2.125 4.40625 C -1.832031 4.238281 -1.597656 4 -1.421875 3.6875 C -1.253906 3.375 -1.171875 3.019531 -1.171875 2.625 C -1.171875 2.226562 -1.253906 1.875 -1.421875 1.5625 C -1.597656 1.25 -1.832031 1.003906 -2.125 0.828125 C -2.425781 0.660156 -2.757812 0.578125 -3.125 0.578125 Z M -3.125 0.578125 "/></g></g></g><g fill="#000000" fill-opacity="1"><g transform="translate(105.868378, 75.450866)"><g><path d="M -0.984375 5.25 L -1.6875 5.25 L -1.6875 0 L -0.984375 0 Z M -1.359375 6.390625 C -1.210938 6.390625 -1.085938 6.4375 -0.984375 6.53125 C -0.878906 6.632812 -0.828125 6.753906 -0.828125 6.890625 C -0.828125 7.023438 -0.878906 7.140625 -0.984375 7.234375 C -1.085938 7.335938 -1.210938 7.390625 -1.359375 7.390625 C -1.503906 7.390625 -1.625 7.34375 -1.71875 7.25 C -1.820312 7.15625 -1.875 7.039062 -1.875 6.90625 C -1.875 6.757812 -1.820312 6.632812 -1.71875 6.53125 C -1.625 6.4375 -1.503906 6.390625 -1.359375 6.390625 Z M -1.359375 6.390625 "/></g></g></g><g fill="#000000" fill-opacity="1"><g transform="translate(103.188193, 75.450866)"><g><path d="M -2.390625 -0.046875 C -1.960938 -0.046875 -1.554688 0.0078125 -1.171875 0.125 C -0.785156 0.25 -0.484375 0.40625 -0.265625 0.59375 L -0.578125 1.15625 C -0.796875 0.976562 -1.070312 0.832031 -1.40625 0.71875 C -1.738281 0.613281 -2.082031 0.5625 -2.4375 0.5625 C -2.914062 0.5625 -3.269531 0.632812 -3.5 0.78125 C -3.726562 0.9375 -3.84375 1.148438 -3.84375 1.421875 C -3.84375 1.617188 -3.78125 1.769531 -3.65625 1.875 C -3.53125 1.988281 -3.367188 2.070312 -3.171875 2.125 C -2.984375 2.1875 -2.726562 2.242188 -2.40625 2.296875 C -1.988281 2.367188 -1.648438 2.445312 -1.390625 2.53125 C -1.128906 2.613281 -0.90625 2.753906 -0.71875 2.953125 C -0.539062 3.160156 -0.453125 3.4375 -0.453125 3.78125 C -0.453125 4.226562 -0.632812 4.585938 -1 4.859375 C -1.363281 5.140625 -1.867188 5.28125 -2.515625 5.28125 C -2.859375 5.28125 -3.195312 5.234375 -3.53125 5.140625 C -3.875 5.054688 -4.15625 4.941406 -4.375 4.796875 L -4.0625 4.234375 C -3.632812 4.523438 -3.117188 4.671875 -2.515625 4.671875 C -2.066406 4.671875 -1.726562 4.59375 -1.5 4.4375 C -1.269531 4.28125 -1.15625 4.070312 -1.15625 3.8125 C -1.15625 3.613281 -1.21875 3.453125 -1.34375 3.328125 C -1.476562 3.210938 -1.640625 3.125 -1.828125 3.0625 C -2.023438 3.007812 -2.289062 2.953125 -2.625 2.890625 C -3.050781 2.804688 -3.390625 2.722656 -3.640625 2.640625 C -3.890625 2.566406 -4.101562 2.429688 -4.28125 2.234375 C -4.46875 2.046875 -4.5625 1.785156 -4.5625 1.453125 C -4.5625 0.984375 -4.367188 0.613281 -3.984375 0.34375 C -3.597656 0.0820312 -3.066406 -0.046875 -2.390625 -0.046875 Z M -2.390625 -0.046875 "/></g></g></g><g fill="#000000" fill-opacity="1"><g transform="translate(98.316035, 75.450866)"><g><path d="M -3.15625 -0.046875 C -2.632812 -0.046875 -2.171875 0.0625 -1.765625 0.28125 C -1.359375 0.507812 -1.035156 0.828125 -0.796875 1.234375 C -0.566406 1.648438 -0.453125 2.113281 -0.453125 2.625 C -0.453125 3.132812 -0.566406 3.59375 -0.796875 4 C -1.035156 4.40625 -1.359375 4.71875 -1.765625 4.9375 C -2.171875 5.164062 -2.632812 5.28125 -3.15625 5.28125 C -3.613281 5.28125 -4.019531 5.191406 -4.375 5.015625 C -4.726562 4.835938 -5.007812 4.582031 -5.21875 4.25 L -4.6875 3.890625 C -4.507812 4.148438 -4.285156 4.34375 -4.015625 4.46875 C -3.753906 4.601562 -3.46875 4.671875 -3.15625 4.671875 C -2.78125 4.671875 -2.441406 4.582031 -2.140625 4.40625 C -1.835938 4.238281 -1.597656 4 -1.421875 3.6875 C -1.253906 3.375 -1.171875 3.019531 -1.171875 2.625 C -1.171875 2.21875 -1.253906 1.859375 -1.421875 1.546875 C -1.597656 1.242188 -1.835938 1.003906 -2.140625 0.828125 C -2.441406 0.660156 -2.78125 0.578125 -3.15625 0.578125 C -3.46875 0.578125 -3.753906 0.640625 -4.015625 0.765625 C -4.285156 0.890625 -4.507812 1.082031 -4.6875 1.34375 L -5.21875 0.984375 C -5.007812 0.648438 -4.722656 0.394531 -4.359375 0.21875 C -4.003906 0.0390625 -3.601562 -0.046875 -3.15625 -0.046875 Z M -3.15625 -0.046875 "/></g></g></g><g fill="#000000" fill-opacity="1"><g transform="translate(92.646778, 75.450866)"><g><path d="M -3.75 0.3125 C -3.613281 0.195312 -3.445312 0.109375 -3.25 0.046875 C -3.050781 -0.015625 -2.847656 -0.046875 -2.640625 -0.046875 C -2.148438 -0.046875 -1.769531 0.0820312 -1.5 0.34375 C -1.238281 0.613281 -1.109375 0.988281 -1.109375 1.46875 L -1.109375 4.640625 L -0.171875 4.640625 L -0.171875 5.25 L -1.109375 5.25 L -1.109375 6.390625 L -1.8125 6.390625 L -1.8125 5.25 L -3.40625 5.25 L -3.40625 4.640625 L -1.8125 4.640625 L -1.8125 1.515625 C -1.8125 1.203125 -1.890625 0.960938 -2.046875 0.796875 C -2.203125 0.640625 -2.425781 0.5625 -2.71875 0.5625 C -2.863281 0.5625 -3.003906 0.582031 -3.140625 0.625 C -3.273438 0.675781 -3.394531 0.742188 -3.5 0.828125 Z M -3.75 0.3125 "/></g></g></g><g fill="#000000" fill-opacity="1"><g transform="translate(88.601593, 75.450866)"><g><path d="M -0.984375 5.25 L -1.6875 5.25 L -1.6875 0 L -0.984375 0 Z M -1.359375 6.390625 C -1.210938 6.390625 -1.085938 6.4375 -0.984375 6.53125 C -0.878906 6.632812 -0.828125 6.753906 -0.828125 6.890625 C -0.828125 7.023438 -0.878906 7.140625 -0.984375 7.234375 C -1.085938 7.335938 -1.210938 7.390625 -1.359375 7.390625 C -1.503906 7.390625 -1.625 7.34375 -1.71875 7.25 C -1.820312 7.15625 -1.875 7.039062 -1.875 6.90625 C -1.875 6.757812 -1.820312 6.632812 -1.71875 6.53125 C -1.625 6.4375 -1.503906 6.390625 -1.359375 6.390625 Z M -1.359375 6.390625 "/></g></g></g><g fill="#000000" fill-opacity="1"><g transform="translate(85.921408, 75.450866)"><g><path d="M -3.15625 -0.046875 C -2.632812 -0.046875 -2.171875 0.0625 -1.765625 0.28125 C -1.359375 0.507812 -1.035156 0.828125 -0.796875 1.234375 C -0.566406 1.648438 -0.453125 2.113281 -0.453125 2.625 C -0.453125 3.132812 -0.566406 3.59375 -0.796875 4 C -1.035156 4.40625 -1.359375 4.71875 -1.765625 4.9375 C -2.171875 5.164062 -2.632812 5.28125 -3.15625 5.28125 C -3.613281 5.28125 -4.019531 5.191406 -4.375 5.015625 C -4.726562 4.835938 -5.007812 4.582031 -5.21875 4.25 L -4.6875 3.890625 C -4.507812 4.148438 -4.285156 4.34375 -4.015625 4.46875 C -3.753906 4.601562 -3.46875 4.671875 -3.15625 4.671875 C -2.78125 4.671875 -2.441406 4.582031 -2.140625 4.40625 C -1.835938 4.238281 -1.597656 4 -1.421875 3.6875 C -1.253906 3.375 -1.171875 3.019531 -1.171875 2.625 C -1.171875 2.21875 -1.253906 1.859375 -1.421875 1.546875 C -1.597656 1.242188 -1.835938 1.003906 -2.140625 0.828125 C -2.441406 0.660156 -2.78125 0.578125 -3.15625 0.578125 C -3.46875 0.578125 -3.753906 0.640625 -4.015625 0.765625 C -4.285156 0.890625 -4.507812 1.082031 -4.6875 1.34375 L -5.21875 0.984375 C -5.007812 0.648438 -4.722656 0.394531 -4.359375 0.21875 C -4.003906 0.0390625 -3.601562 -0.046875 -3.15625 -0.046875 Z M -3.15625 -0.046875 "/></g></g></g><g fill="#000000" fill-opacity="1"><g transform="translate(80.252151, 75.450866)"><g><path d="M -3.75 0.3125 C -3.613281 0.195312 -3.445312 0.109375 -3.25 0.046875 C -3.050781 -0.015625 -2.847656 -0.046875 -2.640625 -0.046875 C -2.148438 -0.046875 -1.769531 0.0820312 -1.5 0.34375 C -1.238281 0.613281 -1.109375 0.988281 -1.109375 1.46875 L -1.109375 4.640625 L -0.171875 4.640625 L -0.171875 5.25 L -1.109375 5.25 L -1.109375 6.390625 L -1.8125 6.390625 L -1.8125 5.25 L -3.40625 5.25 L -3.40625 4.640625 L -1.8125 4.640625 L -1.8125 1.515625 C -1.8125 1.203125 -1.890625 0.960938 -2.046875 0.796875 C -2.203125 0.640625 -2.425781 0.5625 -2.71875 0.5625 C -2.863281 0.5625 -3.003906 0.582031 -3.140625 0.625 C -3.273438 0.675781 -3.394531 0.742188 -3.5 0.828125 Z M -3.75 0.3125 "/></g></g></g><g fill="#000000" fill-opacity="1"><g transform="translate(76.206966, 75.450866)"><g/></g></g><g fill="#000000" fill-opacity="1"><g transform="translate(73.596522, 75.450866)"><g><path d="M -5.84375 5.25 L -5.84375 0.640625 C -5.84375 -0.253906 -5.625 -0.914062 -5.1875 -1.34375 C -4.75 -1.769531 -4.09375 -1.984375 -3.21875 -1.984375 C -2.738281 -1.984375 -2.28125 -1.910156 -1.84375 -1.765625 C -1.40625 -1.628906 -1.050781 -1.429688 -0.78125 -1.171875 L -1.140625 -0.640625 C -1.390625 -0.867188 -1.695312 -1.046875 -2.0625 -1.171875 C -2.425781 -1.296875 -2.804688 -1.359375 -3.203125 -1.359375 C -3.867188 -1.359375 -4.359375 -1.203125 -4.671875 -0.890625 C -4.984375 -0.578125 -5.140625 -0.0976562 -5.140625 0.546875 L -5.140625 1.21875 C -4.921875 0.882812 -4.628906 0.628906 -4.265625 0.453125 C -3.910156 0.285156 -3.519531 0.203125 -3.09375 0.203125 C -2.601562 0.203125 -2.15625 0.304688 -1.75 0.515625 C -1.34375 0.734375 -1.023438 1.035156 -0.796875 1.421875 C -0.566406 1.816406 -0.453125 2.257812 -0.453125 2.75 C -0.453125 3.238281 -0.566406 3.675781 -0.796875 4.0625 C -1.023438 4.445312 -1.335938 4.742188 -1.734375 4.953125 C -2.140625 5.171875 -2.59375 5.28125 -3.09375 5.28125 C -3.539062 5.28125 -3.941406 5.191406 -4.296875 5.015625 C -4.648438 4.835938 -4.9375 4.578125 -5.15625 4.234375 L -5.15625 5.25 Z M -3.15625 0.828125 C -3.539062 0.828125 -3.882812 0.90625 -4.1875 1.0625 C -4.488281 1.226562 -4.722656 1.457031 -4.890625 1.75 C -5.066406 2.039062 -5.15625 2.375 -5.15625 2.75 C -5.15625 3.125 -5.066406 3.453125 -4.890625 3.734375 C -4.722656 4.023438 -4.488281 4.253906 -4.1875 4.421875 C -3.882812 4.585938 -3.539062 4.671875 -3.15625 4.671875 C -2.78125 4.671875 -2.441406 4.585938 -2.140625 4.421875 C -1.835938 4.265625 -1.597656 4.039062 -1.421875 3.75 C -1.253906 3.457031 -1.171875 3.125 -1.171875 2.75 C -1.171875 2.375 -1.253906 2.039062 -1.421875 1.75 C -1.597656 1.457031 -1.835938 1.226562 -2.140625 1.0625 C -2.441406 0.90625 -2.78125 0.828125 -3.15625 0.828125 Z M -3.15625 0.828125 "/></g></g></g><g fill="#000000" fill-opacity="1"><g transform="translate(66.761543, 75.450866)"><g><path d="M -2.828125 5.28125 C -3.503906 5.28125 -4.023438 5.109375 -4.390625 4.765625 C -4.753906 4.421875 -4.9375 3.914062 -4.9375 3.25 L -4.9375 0 L -4.265625 0 L -4.265625 0.8125 C -4.109375 0.539062 -3.875 0.328125 -3.5625 0.171875 C -3.25 0.0234375 -2.882812 -0.046875 -2.46875 -0.046875 C -1.875 -0.046875 -1.40625 0.0859375 -1.0625 0.359375 C -0.71875 0.640625 -0.546875 1.007812 -0.546875 1.46875 C -0.546875 1.914062 -0.707031 2.273438 -1.03125 2.546875 C -1.351562 2.816406 -1.867188 2.953125 -2.578125 2.953125 L -4.234375 2.953125 L -4.234375 3.28125 C -4.234375 3.726562 -4.109375 4.070312 -3.859375 4.3125 C -3.609375 4.550781 -3.238281 4.671875 -2.75 4.671875 C -2.414062 4.671875 -2.09375 4.613281 -1.78125 4.5 C -1.476562 4.394531 -1.21875 4.242188 -1 4.046875 L -0.6875 4.578125 C -0.957031 4.804688 -1.273438 4.976562 -1.640625 5.09375 C -2.015625 5.21875 -2.410156 5.28125 -2.828125 5.28125 Z M -2.578125 0.515625 C -2.972656 0.515625 -3.3125 0.601562 -3.59375 0.78125 C -3.882812 0.96875 -4.097656 1.234375 -4.234375 1.578125 L -4.234375 2.4375 L -2.59375 2.4375 C -1.695312 2.4375 -1.25 2.125 -1.25 1.5 C -1.25 1.1875 -1.363281 0.941406 -1.59375 0.765625 C -1.820312 0.597656 -2.148438 0.515625 -2.578125 0.515625 Z M -2.578125 0.515625 "/></g></g></g><g fill="#000000" fill-opacity="1"><g transform="translate(60.883063, 75.450866)"><g><path d="M -7.53125 5.28125 C -8.1875 5.28125 -8.703125 5.085938 -9.078125 4.703125 C -9.453125 4.328125 -9.640625 3.773438 -9.640625 3.046875 L -9.640625 0 L -8.9375 0 L -8.9375 2.96875 C -8.9375 3.507812 -8.800781 3.921875 -8.53125 4.203125 C -8.269531 4.492188 -7.898438 4.640625 -7.421875 4.640625 C -6.878906 4.640625 -6.453125 4.472656 -6.140625 4.140625 C -5.828125 3.804688 -5.671875 3.34375 -5.671875 2.75 L -5.671875 0 L -4.96875 0 L -4.96875 2.96875 C -4.96875 3.507812 -4.832031 3.921875 -4.5625 4.203125 C -4.300781 4.492188 -3.929688 4.640625 -3.453125 4.640625 C -2.910156 4.640625 -2.476562 4.472656 -2.15625 4.140625 C -1.84375 3.804688 -1.6875 3.34375 -1.6875 2.75 L -1.6875 0 L -0.984375 0 L -0.984375 5.25 L -1.671875 5.25 L -1.671875 4.28125 C -1.847656 4.601562 -2.101562 4.847656 -2.4375 5.015625 C -2.769531 5.191406 -3.15625 5.28125 -3.59375 5.28125 C -4.03125 5.28125 -4.410156 5.1875 -4.734375 5 C -5.054688 4.8125 -5.296875 4.535156 -5.453125 4.171875 C -5.640625 4.515625 -5.914062 4.785156 -6.28125 4.984375 C -6.644531 5.179688 -7.0625 5.28125 -7.53125 5.28125 Z M -7.53125 5.28125 "/></g></g></g><g fill="#000000" fill-opacity="1"><g transform="translate(50.291845, 75.450866)"><g><path d="M -5.546875 2.40625 L -1.171875 2.40625 C -1.203125 1.851562 -1.40625 1.410156 -1.78125 1.078125 C -2.164062 0.742188 -2.648438 0.578125 -3.234375 0.578125 C -3.554688 0.578125 -3.851562 0.632812 -4.125 0.75 C -4.394531 0.863281 -4.628906 1.035156 -4.828125 1.265625 L -5.234375 0.8125 C -5.003906 0.53125 -4.710938 0.316406 -4.359375 0.171875 C -4.015625 0.0234375 -3.628906 -0.046875 -3.203125 -0.046875 C -2.671875 -0.046875 -2.195312 0.0664062 -1.78125 0.296875 C -1.363281 0.523438 -1.035156 0.84375 -0.796875 1.25 C -0.566406 1.65625 -0.453125 2.113281 -0.453125 2.625 C -0.453125 3.132812 -0.5625 3.59375 -0.78125 4 C -1.007812 4.40625 -1.316406 4.71875 -1.703125 4.9375 C -2.097656 5.164062 -2.535156 5.28125 -3.015625 5.28125 C -3.503906 5.28125 -3.941406 5.164062 -4.328125 4.9375 C -4.710938 4.71875 -5.015625 4.40625 -5.234375 4 C -5.453125 3.601562 -5.5625 3.144531 -5.5625 2.625 Z M -3.015625 4.671875 C -2.515625 4.671875 -2.09375 4.507812 -1.75 4.1875 C -1.40625 3.863281 -1.210938 3.445312 -1.171875 2.9375 L -4.890625 2.9375 C -4.835938 3.445312 -4.640625 3.863281 -4.296875 4.1875 C -3.953125 4.507812 -3.523438 4.671875 -3.015625 4.671875 Z M -3.015625 4.671875 "/></g></g></g><g fill="#000000" fill-opacity="1"><g transform="translate(64.639089, 159.802293)"><g><path d="M 7.171875 0 L 7.171875 -4.1875 L 5.109375 -0.734375 L 4.390625 -0.734375 L 2.34375 -4.09375 L 2.34375 0 L 0.828125 0 L 0.828125 -6.984375 L 2.15625 -6.984375 L 4.78125 -2.640625 L 7.34375 -6.984375 L 8.671875 -6.984375 L 8.6875 0 Z M 7.171875 0 "/></g></g></g><g fill="#000000" fill-opacity="1"><g transform="translate(74.154254, 159.802293)"><g><path d="M 2.875 -5.4375 C 3.707031 -5.4375 4.347656 -5.238281 4.796875 -4.84375 C 5.242188 -4.445312 5.46875 -3.851562 5.46875 -3.0625 L 5.46875 0 L 4 0 L 4 -0.671875 C 3.707031 -0.171875 3.164062 0.078125 2.375 0.078125 C 1.957031 0.078125 1.597656 0.0078125 1.296875 -0.125 C 0.992188 -0.269531 0.765625 -0.460938 0.609375 -0.703125 C 0.453125 -0.953125 0.375 -1.234375 0.375 -1.546875 C 0.375 -2.046875 0.5625 -2.4375 0.9375 -2.71875 C 1.3125 -3.007812 1.890625 -3.15625 2.671875 -3.15625 L 3.90625 -3.15625 C 3.90625 -3.488281 3.800781 -3.742188 3.59375 -3.921875 C 3.394531 -4.109375 3.085938 -4.203125 2.671875 -4.203125 C 2.390625 -4.203125 2.109375 -4.15625 1.828125 -4.0625 C 1.554688 -3.976562 1.320312 -3.859375 1.125 -3.703125 L 0.5625 -4.796875 C 0.851562 -5.003906 1.203125 -5.160156 1.609375 -5.265625 C 2.023438 -5.378906 2.445312 -5.4375 2.875 -5.4375 Z M 2.765625 -0.96875 C 3.023438 -0.96875 3.257812 -1.023438 3.46875 -1.140625 C 3.675781 -1.265625 3.820312 -1.445312 3.90625 -1.6875 L 3.90625 -2.25 L 2.84375 -2.25 C 2.207031 -2.25 1.890625 -2.035156 1.890625 -1.609375 C 1.890625 -1.410156 1.96875 -1.253906 2.125 -1.140625 C 2.28125 -1.023438 2.492188 -0.96875 2.765625 -0.96875 Z M 2.765625 -0.96875 "/></g></g></g><g fill="#000000" fill-opacity="1"><g transform="translate(80.301743, 159.802293)"><g><path d="M 3.984375 -5.4375 C 4.640625 -5.4375 5.171875 -5.238281 5.578125 -4.84375 C 5.992188 -4.445312 6.203125 -3.859375 6.203125 -3.078125 L 6.203125 0 L 4.640625 0 L 4.640625 -2.828125 C 4.640625 -3.253906 4.546875 -3.570312 4.359375 -3.78125 C 4.179688 -3.988281 3.914062 -4.09375 3.5625 -4.09375 C 3.164062 -4.09375 2.847656 -3.972656 2.609375 -3.734375 C 2.378906 -3.492188 2.265625 -3.132812 2.265625 -2.65625 L 2.265625 0 L 0.71875 0 L 0.71875 -5.359375 L 2.203125 -5.359375 L 2.203125 -4.734375 C 2.410156 -4.960938 2.664062 -5.132812 2.96875 -5.25 C 3.269531 -5.375 3.609375 -5.4375 3.984375 -5.4375 Z M 3.984375 -5.4375 "/></g></g></g><g fill="#000000" fill-opacity="1"><g transform="translate(87.246331, 159.802293)"><g><path d="M 6.1875 -7.390625 L 6.1875 0 L 4.6875 0 L 4.6875 -0.625 C 4.300781 -0.15625 3.742188 0.078125 3.015625 0.078125 C 2.515625 0.078125 2.054688 -0.03125 1.640625 -0.25 C 1.234375 -0.476562 0.914062 -0.800781 0.6875 -1.21875 C 0.457031 -1.644531 0.34375 -2.132812 0.34375 -2.6875 C 0.34375 -3.238281 0.457031 -3.722656 0.6875 -4.140625 C 0.914062 -4.554688 1.234375 -4.875 1.640625 -5.09375 C 2.054688 -5.320312 2.515625 -5.4375 3.015625 -5.4375 C 3.703125 -5.4375 4.238281 -5.222656 4.625 -4.796875 L 4.625 -7.390625 Z M 3.296875 -1.203125 C 3.679688 -1.203125 4.003906 -1.332031 4.265625 -1.59375 C 4.523438 -1.863281 4.65625 -2.226562 4.65625 -2.6875 C 4.65625 -3.132812 4.523438 -3.492188 4.265625 -3.765625 C 4.003906 -4.035156 3.679688 -4.171875 3.296875 -4.171875 C 2.890625 -4.171875 2.554688 -4.035156 2.296875 -3.765625 C 2.035156 -3.492188 1.90625 -3.132812 1.90625 -2.6875 C 1.90625 -2.226562 2.035156 -1.863281 2.296875 -1.59375 C 2.554688 -1.332031 2.890625 -1.203125 3.296875 -1.203125 Z M 3.296875 -1.203125 "/></g></g></g><g fill="#000000" fill-opacity="1"><g transform="translate(94.141082, 159.802293)"><g><path d="M 2.875 -5.4375 C 3.707031 -5.4375 4.347656 -5.238281 4.796875 -4.84375 C 5.242188 -4.445312 5.46875 -3.851562 5.46875 -3.0625 L 5.46875 0 L 4 0 L 4 -0.671875 C 3.707031 -0.171875 3.164062 0.078125 2.375 0.078125 C 1.957031 0.078125 1.597656 0.0078125 1.296875 -0.125 C 0.992188 -0.269531 0.765625 -0.460938 0.609375 -0.703125 C 0.453125 -0.953125 0.375 -1.234375 0.375 -1.546875 C 0.375 -2.046875 0.5625 -2.4375 0.9375 -2.71875 C 1.3125 -3.007812 1.890625 -3.15625 2.671875 -3.15625 L 3.90625 -3.15625 C 3.90625 -3.488281 3.800781 -3.742188 3.59375 -3.921875 C 3.394531 -4.109375 3.085938 -4.203125 2.671875 -4.203125 C 2.390625 -4.203125 2.109375 -4.15625 1.828125 -4.0625 C 1.554688 -3.976562 1.320312 -3.859375 1.125 -3.703125 L 0.5625 -4.796875 C 0.851562 -5.003906 1.203125 -5.160156 1.609375 -5.265625 C 2.023438 -5.378906 2.445312 -5.4375 2.875 -5.4375 Z M 2.765625 -0.96875 C 3.023438 -0.96875 3.257812 -1.023438 3.46875 -1.140625 C 3.675781 -1.265625 3.820312 -1.445312 3.90625 -1.6875 L 3.90625 -2.25 L 2.84375 -2.25 C 2.207031 -2.25 1.890625 -2.035156 1.890625 -1.609375 C 1.890625 -1.410156 1.96875 -1.253906 2.125 -1.140625 C 2.28125 -1.023438 2.492188 -0.96875 2.765625 -0.96875 Z M 2.765625 -0.96875 "/></g></g></g><g fill="#000000" fill-opacity="1"><g transform="translate(100.288571, 159.802293)"><g><path d="M 4.171875 -0.265625 C 4.023438 -0.148438 3.835938 -0.0625 3.609375 0 C 3.390625 0.0507812 3.15625 0.078125 2.90625 0.078125 C 2.269531 0.078125 1.773438 -0.0820312 1.421875 -0.40625 C 1.078125 -0.726562 0.90625 -1.207031 0.90625 -1.84375 L 0.90625 -4.046875 L 0.078125 -4.046875 L 0.078125 -5.25 L 0.90625 -5.25 L 0.90625 -6.546875 L 2.46875 -6.546875 L 2.46875 -5.25 L 3.796875 -5.25 L 3.796875 -4.046875 L 2.46875 -4.046875 L 2.46875 -1.859375 C 2.46875 -1.640625 2.523438 -1.46875 2.640625 -1.34375 C 2.753906 -1.21875 2.914062 -1.15625 3.125 -1.15625 C 3.375 -1.15625 3.585938 -1.222656 3.765625 -1.359375 Z M 4.171875 -0.265625 "/></g></g></g><g fill="#000000" fill-opacity="1"><g transform="translate(104.453301, 159.802293)"><g><path d="M 5.96875 -2.65625 C 5.96875 -2.632812 5.957031 -2.5 5.9375 -2.25 L 1.890625 -2.25 C 1.960938 -1.914062 2.132812 -1.648438 2.40625 -1.453125 C 2.675781 -1.265625 3.015625 -1.171875 3.421875 -1.171875 C 3.703125 -1.171875 3.945312 -1.210938 4.15625 -1.296875 C 4.375 -1.378906 4.578125 -1.507812 4.765625 -1.6875 L 5.59375 -0.78125 C 5.082031 -0.207031 4.34375 0.078125 3.375 0.078125 C 2.769531 0.078125 2.234375 -0.0351562 1.765625 -0.265625 C 1.304688 -0.503906 0.945312 -0.832031 0.6875 -1.25 C 0.4375 -1.675781 0.3125 -2.15625 0.3125 -2.6875 C 0.3125 -3.207031 0.4375 -3.675781 0.6875 -4.09375 C 0.9375 -4.519531 1.28125 -4.847656 1.71875 -5.078125 C 2.15625 -5.316406 2.644531 -5.4375 3.1875 -5.4375 C 3.707031 -5.4375 4.179688 -5.320312 4.609375 -5.09375 C 5.035156 -4.875 5.367188 -4.550781 5.609375 -4.125 C 5.847656 -3.707031 5.96875 -3.21875 5.96875 -2.65625 Z M 3.1875 -4.265625 C 2.832031 -4.265625 2.535156 -4.164062 2.296875 -3.96875 C 2.054688 -3.769531 1.910156 -3.5 1.859375 -3.15625 L 4.5 -3.15625 C 4.445312 -3.488281 4.300781 -3.753906 4.0625 -3.953125 C 3.820312 -4.160156 3.53125 -4.265625 3.1875 -4.265625 Z M 3.1875 -4.265625 "/></g></g></g><g fill="#000000" fill-opacity="1"><g transform="translate(110.74244, 159.802293)"><g/></g></g><g fill="#000000" fill-opacity="1"><g transform="translate(44.256433, 173.258351)"><g><path d="M 2.5 -6.34375 L 0.046875 -6.34375 L 0.046875 -6.984375 L 5.6875 -6.984375 L 5.6875 -6.34375 L 3.234375 -6.34375 L 3.234375 0 L 2.5 0 Z M 2.5 -6.34375 "/></g></g></g><g fill="#000000" fill-opacity="1"><g transform="translate(49.975492, 173.258351)"><g><path d="M 3.65625 -5.28125 C 4.3125 -5.28125 4.832031 -5.085938 5.21875 -4.703125 C 5.613281 -4.328125 5.8125 -3.773438 5.8125 -3.046875 L 5.8125 0 L 5.109375 0 L 5.109375 -2.96875 C 5.109375 -3.507812 4.96875 -3.921875 4.6875 -4.203125 C 4.414062 -4.492188 4.03125 -4.640625 3.53125 -4.640625 C 2.96875 -4.640625 2.519531 -4.472656 2.1875 -4.140625 C 1.851562 -3.804688 1.6875 -3.34375 1.6875 -2.75 L 1.6875 0 L 0.984375 0 L 0.984375 -7.390625 L 1.6875 -7.390625 L 1.6875 -4.328125 C 1.882812 -4.628906 2.148438 -4.863281 2.484375 -5.03125 C 2.828125 -5.195312 3.21875 -5.28125 3.65625 -5.28125 Z M 3.65625 -5.28125 "/></g></g></g><g fill="#000000" fill-opacity="1"><g transform="translate(56.740719, 173.258351)"><g><path d="M 5.546875 -2.40625 L 1.171875 -2.40625 C 1.203125 -1.851562 1.40625 -1.410156 1.78125 -1.078125 C 2.164062 -0.742188 2.648438 -0.578125 3.234375 -0.578125 C 3.554688 -0.578125 3.851562 -0.632812 4.125 -0.75 C 4.394531 -0.863281 4.628906 -1.035156 4.828125 -1.265625 L 5.234375 -0.8125 C 5.003906 -0.53125 4.710938 -0.316406 4.359375 -0.171875 C 4.015625 -0.0234375 3.628906 0.046875 3.203125 0.046875 C 2.671875 0.046875 2.195312 -0.0664062 1.78125 -0.296875 C 1.363281 -0.523438 1.035156 -0.84375 0.796875 -1.25 C 0.566406 -1.65625 0.453125 -2.113281 0.453125 -2.625 C 0.453125 -3.132812 0.5625 -3.59375 0.78125 -4 C 1.007812 -4.40625 1.316406 -4.71875 1.703125 -4.9375 C 2.097656 -5.164062 2.535156 -5.28125 3.015625 -5.28125 C 3.503906 -5.28125 3.941406 -5.164062 4.328125 -4.9375 C 4.710938 -4.71875 5.015625 -4.40625 5.234375 -4 C 5.453125 -3.601562 5.5625 -3.144531 5.5625 -2.625 Z M 3.015625 -4.671875 C 2.515625 -4.671875 2.09375 -4.507812 1.75 -4.1875 C 1.40625 -3.863281 1.210938 -3.445312 1.171875 -2.9375 L 4.890625 -2.9375 C 4.835938 -3.445312 4.640625 -3.863281 4.296875 -4.1875 C 3.953125 -4.507812 3.523438 -4.671875 3.015625 -4.671875 Z M 3.015625 -4.671875 "/></g></g></g><g fill="#000000" fill-opacity="1"><g transform="translate(62.758683, 173.258351)"><g/></g></g><g fill="#000000" fill-opacity="1"><g transform="translate(65.369127, 173.258351)"><g><path d="M 5.765625 -7.390625 L 5.765625 0 L 5.09375 0 L 5.09375 -1.03125 C 4.882812 -0.6875 4.601562 -0.421875 4.25 -0.234375 C 3.90625 -0.046875 3.515625 0.046875 3.078125 0.046875 C 2.578125 0.046875 2.128906 -0.0625 1.734375 -0.28125 C 1.335938 -0.507812 1.023438 -0.828125 0.796875 -1.234375 C 0.566406 -1.640625 0.453125 -2.101562 0.453125 -2.625 C 0.453125 -3.144531 0.566406 -3.601562 0.796875 -4 C 1.023438 -4.40625 1.335938 -4.71875 1.734375 -4.9375 C 2.128906 -5.164062 2.578125 -5.28125 3.078125 -5.28125 C 3.492188 -5.28125 3.875 -5.191406 4.21875 -5.015625 C 4.5625 -4.835938 4.84375 -4.582031 5.0625 -4.25 L 5.0625 -7.390625 Z M 3.125 -0.578125 C 3.488281 -0.578125 3.816406 -0.660156 4.109375 -0.828125 C 4.410156 -1.003906 4.644531 -1.25 4.8125 -1.5625 C 4.988281 -1.875 5.078125 -2.226562 5.078125 -2.625 C 5.078125 -3.019531 4.988281 -3.375 4.8125 -3.6875 C 4.644531 -4 4.410156 -4.238281 4.109375 -4.40625 C 3.816406 -4.582031 3.488281 -4.671875 3.125 -4.671875 C 2.757812 -4.671875 2.425781 -4.582031 2.125 -4.40625 C 1.832031 -4.238281 1.597656 -4 1.421875 -3.6875 C 1.253906 -3.375 1.171875 -3.019531 1.171875 -2.625 C 1.171875 -2.226562 1.253906 -1.875 1.421875 -1.5625 C 1.597656 -1.25 1.832031 -1.003906 2.125 -0.828125 C 2.425781 -0.660156 2.757812 -0.578125 3.125 -0.578125 Z M 3.125 -0.578125 "/></g></g></g><g fill="#000000" fill-opacity="1"><g transform="translate(72.124396, 173.258351)"><g><path d="M 0.984375 -5.25 L 1.6875 -5.25 L 1.6875 0 L 0.984375 0 Z M 1.359375 -6.390625 C 1.210938 -6.390625 1.085938 -6.4375 0.984375 -6.53125 C 0.878906 -6.632812 0.828125 -6.753906 0.828125 -6.890625 C 0.828125 -7.023438 0.878906 -7.140625 0.984375 -7.234375 C 1.085938 -7.335938 1.210938 -7.390625 1.359375 -7.390625 C 1.503906 -7.390625 1.625 -7.34375 1.71875 -7.25 C 1.820312 -7.15625 1.875 -7.039062 1.875 -6.90625 C 1.875 -6.757812 1.820312 -6.632812 1.71875 -6.53125 C 1.625 -6.4375 1.503906 -6.390625 1.359375 -6.390625 Z M 1.359375 -6.390625 "/></g></g></g><g fill="#000000" fill-opacity="1"><g transform="translate(74.804581, 173.258351)"><g><path d="M 2.390625 0.046875 C 1.960938 0.046875 1.554688 -0.0078125 1.171875 -0.125 C 0.785156 -0.25 0.484375 -0.40625 0.265625 -0.59375 L 0.578125 -1.15625 C 0.796875 -0.976562 1.070312 -0.832031 1.40625 -0.71875 C 1.738281 -0.613281 2.082031 -0.5625 2.4375 -0.5625 C 2.914062 -0.5625 3.269531 -0.632812 3.5 -0.78125 C 3.726562 -0.9375 3.84375 -1.148438 3.84375 -1.421875 C 3.84375 -1.617188 3.78125 -1.769531 3.65625 -1.875 C 3.53125 -1.988281 3.367188 -2.070312 3.171875 -2.125 C 2.984375 -2.1875 2.726562 -2.242188 2.40625 -2.296875 C 1.988281 -2.367188 1.648438 -2.445312 1.390625 -2.53125 C 1.128906 -2.613281 0.90625 -2.753906 0.71875 -2.953125 C 0.539062 -3.160156 0.453125 -3.4375 0.453125 -3.78125 C 0.453125 -4.226562 0.632812 -4.585938 1 -4.859375 C 1.363281 -5.140625 1.867188 -5.28125 2.515625 -5.28125 C 2.859375 -5.28125 3.195312 -5.234375 3.53125 -5.140625 C 3.875 -5.054688 4.15625 -4.941406 4.375 -4.796875 L 4.0625 -4.234375 C 3.632812 -4.523438 3.117188 -4.671875 2.515625 -4.671875 C 2.066406 -4.671875 1.726562 -4.59375 1.5 -4.4375 C 1.269531 -4.28125 1.15625 -4.070312 1.15625 -3.8125 C 1.15625 -3.613281 1.21875 -3.453125 1.34375 -3.328125 C 1.476562 -3.210938 1.640625 -3.125 1.828125 -3.0625 C 2.023438 -3.007812 2.289062 -2.953125 2.625 -2.890625 C 3.050781 -2.804688 3.390625 -2.722656 3.640625 -2.640625 C 3.890625 -2.566406 4.101562 -2.429688 4.28125 -2.234375 C 4.46875 -2.046875 4.5625 -1.785156 4.5625 -1.453125 C 4.5625 -0.984375 4.367188 -0.613281 3.984375 -0.34375 C 3.597656 -0.0820312 3.066406 0.046875 2.390625 0.046875 Z M 2.390625 0.046875 "/></g></g></g><g fill="#000000" fill-opacity="1"><g transform="translate(79.67674, 173.258351)"><g><path d="M 3.15625 0.046875 C 2.632812 0.046875 2.171875 -0.0625 1.765625 -0.28125 C 1.359375 -0.507812 1.035156 -0.828125 0.796875 -1.234375 C 0.566406 -1.648438 0.453125 -2.113281 0.453125 -2.625 C 0.453125 -3.132812 0.566406 -3.59375 0.796875 -4 C 1.035156 -4.40625 1.359375 -4.71875 1.765625 -4.9375 C 2.171875 -5.164062 2.632812 -5.28125 3.15625 -5.28125 C 3.613281 -5.28125 4.019531 -5.191406 4.375 -5.015625 C 4.726562 -4.835938 5.007812 -4.582031 5.21875 -4.25 L 4.6875 -3.890625 C 4.507812 -4.148438 4.285156 -4.34375 4.015625 -4.46875 C 3.753906 -4.601562 3.46875 -4.671875 3.15625 -4.671875 C 2.78125 -4.671875 2.441406 -4.582031 2.140625 -4.40625 C 1.835938 -4.238281 1.597656 -4 1.421875 -3.6875 C 1.253906 -3.375 1.171875 -3.019531 1.171875 -2.625 C 1.171875 -2.21875 1.253906 -1.859375 1.421875 -1.546875 C 1.597656 -1.242188 1.835938 -1.003906 2.140625 -0.828125 C 2.441406 -0.660156 2.78125 -0.578125 3.15625 -0.578125 C 3.46875 -0.578125 3.753906 -0.640625 4.015625 -0.765625 C 4.285156 -0.890625 4.507812 -1.082031 4.6875 -1.34375 L 5.21875 -0.984375 C 5.007812 -0.648438 4.722656 -0.394531 4.359375 -0.21875 C 4.003906 -0.0390625 3.601562 0.046875 3.15625 0.046875 Z M 3.15625 0.046875 "/></g></g></g><g fill="#000000" fill-opacity="1"><g transform="translate(85.345997, 173.258351)"><g><path d="M 3.75 -0.3125 C 3.613281 -0.195312 3.445312 -0.109375 3.25 -0.046875 C 3.050781 0.015625 2.847656 0.046875 2.640625 0.046875 C 2.148438 0.046875 1.769531 -0.0820312 1.5 -0.34375 C 1.238281 -0.613281 1.109375 -0.988281 1.109375 -1.46875 L 1.109375 -4.640625 L 0.171875 -4.640625 L 0.171875 -5.25 L 1.109375 -5.25 L 1.109375 -6.390625 L 1.8125 -6.390625 L 1.8125 -5.25 L 3.40625 -5.25 L 3.40625 -4.640625 L 1.8125 -4.640625 L 1.8125 -1.515625 C 1.8125 -1.203125 1.890625 -0.960938 2.046875 -0.796875 C 2.203125 -0.640625 2.425781 -0.5625 2.71875 -0.5625 C 2.863281 -0.5625 3.003906 -0.582031 3.140625 -0.625 C 3.273438 -0.675781 3.394531 -0.742188 3.5 -0.828125 Z M 3.75 -0.3125 "/></g></g></g><g fill="#000000" fill-opacity="1"><g transform="translate(89.391182, 173.258351)"><g><path d="M 0.984375 -5.25 L 1.6875 -5.25 L 1.6875 0 L 0.984375 0 Z M 1.359375 -6.390625 C 1.210938 -6.390625 1.085938 -6.4375 0.984375 -6.53125 C 0.878906 -6.632812 0.828125 -6.753906 0.828125 -6.890625 C 0.828125 -7.023438 0.878906 -7.140625 0.984375 -7.234375 C 1.085938 -7.335938 1.210938 -7.390625 1.359375 -7.390625 C 1.503906 -7.390625 1.625 -7.34375 1.71875 -7.25 C 1.820312 -7.15625 1.875 -7.039062 1.875 -6.90625 C 1.875 -6.757812 1.820312 -6.632812 1.71875 -6.53125 C 1.625 -6.4375 1.503906 -6.390625 1.359375 -6.390625 Z M 1.359375 -6.390625 "/></g></g></g><g fill="#000000" fill-opacity="1"><g transform="translate(92.071368, 173.258351)"><g><path d="M 3.15625 0.046875 C 2.632812 0.046875 2.171875 -0.0625 1.765625 -0.28125 C 1.359375 -0.507812 1.035156 -0.828125 0.796875 -1.234375 C 0.566406 -1.648438 0.453125 -2.113281 0.453125 -2.625 C 0.453125 -3.132812 0.566406 -3.59375 0.796875 -4 C 1.035156 -4.40625 1.359375 -4.71875 1.765625 -4.9375 C 2.171875 -5.164062 2.632812 -5.28125 3.15625 -5.28125 C 3.613281 -5.28125 4.019531 -5.191406 4.375 -5.015625 C 4.726562 -4.835938 5.007812 -4.582031 5.21875 -4.25 L 4.6875 -3.890625 C 4.507812 -4.148438 4.285156 -4.34375 4.015625 -4.46875 C 3.753906 -4.601562 3.46875 -4.671875 3.15625 -4.671875 C 2.78125 -4.671875 2.441406 -4.582031 2.140625 -4.40625 C 1.835938 -4.238281 1.597656 -4 1.421875 -3.6875 C 1.253906 -3.375 1.171875 -3.019531 1.171875 -2.625 C 1.171875 -2.21875 1.253906 -1.859375 1.421875 -1.546875 C 1.597656 -1.242188 1.835938 -1.003906 2.140625 -0.828125 C 2.441406 -0.660156 2.78125 -0.578125 3.15625 -0.578125 C 3.46875 -0.578125 3.753906 -0.640625 4.015625 -0.765625 C 4.285156 -0.890625 4.507812 -1.082031 4.6875 -1.34375 L 5.21875 -0.984375 C 5.007812 -0.648438 4.722656 -0.394531 4.359375 -0.21875 C 4.003906 -0.0390625 3.601562 0.046875 3.15625 0.046875 Z M 3.15625 0.046875 "/></g></g></g><g fill="#000000" fill-opacity="1"><g transform="translate(97.740625, 173.258351)"><g><path d="M 3.75 -0.3125 C 3.613281 -0.195312 3.445312 -0.109375 3.25 -0.046875 C 3.050781 0.015625 2.847656 0.046875 2.640625 0.046875 C 2.148438 0.046875 1.769531 -0.0820312 1.5 -0.34375 C 1.238281 -0.613281 1.109375 -0.988281 1.109375 -1.46875 L 1.109375 -4.640625 L 0.171875 -4.640625 L 0.171875 -5.25 L 1.109375 -5.25 L 1.109375 -6.390625 L 1.8125 -6.390625 L 1.8125 -5.25 L 3.40625 -5.25 L 3.40625 -4.640625 L 1.8125 -4.640625 L 1.8125 -1.515625 C 1.8125 -1.203125 1.890625 -0.960938 2.046875 -0.796875 C 2.203125 -0.640625 2.425781 -0.5625 2.71875 -0.5625 C 2.863281 -0.5625 3.003906 -0.582031 3.140625 -0.625 C 3.273438 -0.675781 3.394531 -0.742188 3.5 -0.828125 Z M 3.75 -0.3125 "/></g></g></g><g fill="#000000" fill-opacity="1"><g transform="translate(101.785811, 173.258351)"><g/></g></g><g fill="#000000" fill-opacity="1"><g transform="translate(104.396255, 173.258351)"><g><path d="M 5.84375 -5.25 L 5.84375 -0.640625 C 5.84375 0.253906 5.625 0.914062 5.1875 1.34375 C 4.75 1.769531 4.09375 1.984375 3.21875 1.984375 C 2.738281 1.984375 2.28125 1.910156 1.84375 1.765625 C 1.40625 1.628906 1.050781 1.429688 0.78125 1.171875 L 1.140625 0.640625 C 1.390625 0.867188 1.695312 1.046875 2.0625 1.171875 C 2.425781 1.296875 2.804688 1.359375 3.203125 1.359375 C 3.867188 1.359375 4.359375 1.203125 4.671875 0.890625 C 4.984375 0.578125 5.140625 0.0976562 5.140625 -0.546875 L 5.140625 -1.21875 C 4.921875 -0.882812 4.628906 -0.628906 4.265625 -0.453125 C 3.910156 -0.285156 3.519531 -0.203125 3.09375 -0.203125 C 2.601562 -0.203125 2.15625 -0.304688 1.75 -0.515625 C 1.34375 -0.734375 1.023438 -1.035156 0.796875 -1.421875 C 0.566406 -1.816406 0.453125 -2.257812 0.453125 -2.75 C 0.453125 -3.238281 0.566406 -3.675781 0.796875 -4.0625 C 1.023438 -4.445312 1.335938 -4.742188 1.734375 -4.953125 C 2.140625 -5.171875 2.59375 -5.28125 3.09375 -5.28125 C 3.539062 -5.28125 3.941406 -5.191406 4.296875 -5.015625 C 4.648438 -4.835938 4.9375 -4.578125 5.15625 -4.234375 L 5.15625 -5.25 Z M 3.15625 -0.828125 C 3.539062 -0.828125 3.882812 -0.90625 4.1875 -1.0625 C 4.488281 -1.226562 4.722656 -1.457031 4.890625 -1.75 C 5.066406 -2.039062 5.15625 -2.375 5.15625 -2.75 C 5.15625 -3.125 5.066406 -3.453125 4.890625 -3.734375 C 4.722656 -4.023438 4.488281 -4.253906 4.1875 -4.421875 C 3.882812 -4.585938 3.539062 -4.671875 3.15625 -4.671875 C 2.78125 -4.671875 2.441406 -4.585938 2.140625 -4.421875 C 1.835938 -4.265625 1.597656 -4.039062 1.421875 -3.75 C 1.253906 -3.457031 1.171875 -3.125 1.171875 -2.75 C 1.171875 -2.375 1.253906 -2.039062 1.421875 -1.75 C 1.597656 -1.457031 1.835938 -1.226562 2.140625 -1.0625 C 2.441406 -0.90625 2.78125 -0.828125 3.15625 -0.828125 Z M 3.15625 -0.828125 "/></g></g></g><g fill="#000000" fill-opacity="1"><g transform="translate(111.231234, 173.258351)"><g><path d="M 2.828125 -5.28125 C 3.503906 -5.28125 4.023438 -5.109375 4.390625 -4.765625 C 4.753906 -4.421875 4.9375 -3.914062 4.9375 -3.25 L 4.9375 0 L 4.265625 0 L 4.265625 -0.8125 C 4.109375 -0.539062 3.875 -0.328125 3.5625 -0.171875 C 3.25 -0.0234375 2.882812 0.046875 2.46875 0.046875 C 1.875 0.046875 1.40625 -0.0859375 1.0625 -0.359375 C 0.71875 -0.640625 0.546875 -1.007812 0.546875 -1.46875 C 0.546875 -1.914062 0.707031 -2.273438 1.03125 -2.546875 C 1.351562 -2.816406 1.867188 -2.953125 2.578125 -2.953125 L 4.234375 -2.953125 L 4.234375 -3.28125 C 4.234375 -3.726562 4.109375 -4.070312 3.859375 -4.3125 C 3.609375 -4.550781 3.238281 -4.671875 2.75 -4.671875 C 2.414062 -4.671875 2.09375 -4.613281 1.78125 -4.5 C 1.476562 -4.394531 1.21875 -4.242188 1 -4.046875 L 0.6875 -4.578125 C 0.957031 -4.804688 1.273438 -4.976562 1.640625 -5.09375 C 2.015625 -5.21875 2.410156 -5.28125 2.828125 -5.28125 Z M 2.578125 -0.515625 C 2.972656 -0.515625 3.3125 -0.601562 3.59375 -0.78125 C 3.882812 -0.96875 4.097656 -1.234375 4.234375 -1.578125 L 4.234375 -2.4375 L 2.59375 -2.4375 C 1.695312 -2.4375 1.25 -2.125 1.25 -1.5 C 1.25 -1.1875 1.363281 -0.941406 1.59375 -0.765625 C 1.820312 -0.597656 2.148438 -0.515625 2.578125 -0.515625 Z M 2.578125 -0.515625 "/></g></g></g><g fill="#000000" fill-opacity="1"><g transform="translate(117.109716, 173.258351)"><g><path d="M 7.53125 -5.28125 C 8.1875 -5.28125 8.703125 -5.085938 9.078125 -4.703125 C 9.453125 -4.328125 9.640625 -3.773438 9.640625 -3.046875 L 9.640625 0 L 8.9375 0 L 8.9375 -2.96875 C 8.9375 -3.507812 8.800781 -3.921875 8.53125 -4.203125 C 8.269531 -4.492188 7.898438 -4.640625 7.421875 -4.640625 C 6.878906 -4.640625 6.453125 -4.472656 6.140625 -4.140625 C 5.828125 -3.804688 5.671875 -3.34375 5.671875 -2.75 L 5.671875 0 L 4.96875 0 L 4.96875 -2.96875 C 4.96875 -3.507812 4.832031 -3.921875 4.5625 -4.203125 C 4.300781 -4.492188 3.929688 -4.640625 3.453125 -4.640625 C 2.910156 -4.640625 2.476562 -4.472656 2.15625 -4.140625 C 1.84375 -3.804688 1.6875 -3.34375 1.6875 -2.75 L 1.6875 0 L 0.984375 0 L 0.984375 -5.25 L 1.671875 -5.25 L 1.671875 -4.28125 C 1.847656 -4.601562 2.101562 -4.847656 2.4375 -5.015625 C 2.769531 -5.191406 3.15625 -5.28125 3.59375 -5.28125 C 4.03125 -5.28125 4.410156 -5.1875 4.734375 -5 C 5.054688 -4.8125 5.296875 -4.535156 5.453125 -4.171875 C 5.640625 -4.515625 5.914062 -4.785156 6.28125 -4.984375 C 6.644531 -5.179688 7.0625 -5.28125 7.53125 -5.28125 Z M 7.53125 -5.28125 "/></g></g></g><g fill="#000000" fill-opacity="1"><g transform="translate(127.700934, 173.258351)"><g><path d="M 5.546875 -2.40625 L 1.171875 -2.40625 C 1.203125 -1.851562 1.40625 -1.410156 1.78125 -1.078125 C 2.164062 -0.742188 2.648438 -0.578125 3.234375 -0.578125 C 3.554688 -0.578125 3.851562 -0.632812 4.125 -0.75 C 4.394531 -0.863281 4.628906 -1.035156 4.828125 -1.265625 L 5.234375 -0.8125 C 5.003906 -0.53125 4.710938 -0.316406 4.359375 -0.171875 C 4.015625 -0.0234375 3.628906 0.046875 3.203125 0.046875 C 2.671875 0.046875 2.195312 -0.0664062 1.78125 -0.296875 C 1.363281 -0.523438 1.035156 -0.84375 0.796875 -1.25 C 0.566406 -1.65625 0.453125 -2.113281 0.453125 -2.625 C 0.453125 -3.132812 0.5625 -3.59375 0.78125 -4 C 1.007812 -4.40625 1.316406 -4.71875 1.703125 -4.9375 C 2.097656 -5.164062 2.535156 -5.28125 3.015625 -5.28125 C 3.503906 -5.28125 3.941406 -5.164062 4.328125 -4.9375 C 4.710938 -4.71875 5.015625 -4.40625 5.234375 -4 C 5.453125 -3.601562 5.5625 -3.144531 5.5625 -2.625 Z M 3.015625 -4.671875 C 2.515625 -4.671875 2.09375 -4.507812 1.75 -4.1875 C 1.40625 -3.863281 1.210938 -3.445312 1.171875 -2.9375 L 4.890625 -2.9375 C 4.835938 -3.445312 4.640625 -3.863281 4.296875 -4.1875 C 3.953125 -4.507812 3.523438 -4.671875 3.015625 -4.671875 Z M 3.015625 -4.671875 "/></g></g></g><path stroke-linecap="butt" transform="matrix(0.747559, 0, 0, 0.747559, 60.520472, 124.168815)" fill="none" stroke-linejoin="miter" d="M -0.00125888 0.500501 L 76.194675 0.500501 " stroke="#000000" stroke-width="1" stroke-opacity="1" stroke-miterlimit="4"/></g></g></g></svg>